<mxfile host="app.diagrams.net" modified="2022-08-12T08:13:29.313Z" agent="5.0 (Windows NT 10.0; Win64; x64) AppleWebKit/537.36 (KHTML, like Gecko) Chrome/103.0.0.0 Safari/537.36" etag="vUovAAFrTIMoGeC-VOBt" version="20.2.3" type="github">
  <diagram id="CsMgUj1Mont5WAsNdcey" name="第 1 页">
    <mxGraphModel dx="968" dy="475" grid="1" gridSize="10" guides="1" tooltips="1" connect="1" arrows="1" fold="1" page="1" pageScale="1" pageWidth="827" pageHeight="1169" math="0" shadow="0">
      <root>
        <mxCell id="0" />
        <mxCell id="1" parent="0" />
        <mxCell id="2r3JKYAfRwa4Y5Ds583L-1" value="银结通签约" style="swimlane;html=1;childLayout=stackLayout;startSize=20;rounded=0;shadow=0;labelBackgroundColor=none;strokeWidth=1;fontFamily=Verdana;fontSize=8;align=center;" vertex="1" parent="1">
          <mxGeometry x="60" y="70" width="1070" height="310" as="geometry" />
        </mxCell>
        <mxCell id="2r3JKYAfRwa4Y5Ds583L-2" value="BOSS" style="swimlane;html=1;startSize=20;" vertex="1" parent="2r3JKYAfRwa4Y5Ds583L-1">
          <mxGeometry y="20" width="280" height="290" as="geometry" />
        </mxCell>
        <mxCell id="2r3JKYAfRwa4Y5Ds583L-3" value="BOSS测试" style="rounded=1;whiteSpace=wrap;html=1;shadow=0;labelBackgroundColor=none;strokeWidth=1;fontFamily=Verdana;fontSize=8;align=center;" vertex="1" parent="2r3JKYAfRwa4Y5Ds583L-2">
          <mxGeometry x="90" y="65" width="100" height="60" as="geometry" />
        </mxCell>
        <mxCell id="2r3JKYAfRwa4Y5Ds583L-4" style="edgeStyle=orthogonalEdgeStyle;rounded=1;html=1;labelBackgroundColor=none;startArrow=none;startFill=0;startSize=5;endArrow=classicThin;endFill=1;endSize=5;jettySize=auto;orthogonalLoop=1;strokeWidth=1;fontFamily=Verdana;fontSize=8" edge="1" parent="2r3JKYAfRwa4Y5Ds583L-1" source="2r3JKYAfRwa4Y5Ds583L-3" target="2r3JKYAfRwa4Y5Ds583L-7">
          <mxGeometry relative="1" as="geometry" />
        </mxCell>
        <mxCell id="2r3JKYAfRwa4Y5Ds583L-5" value="公网访问183.62.50.114:30445" style="edgeLabel;html=1;align=center;verticalAlign=middle;resizable=0;points=[];fontSize=10;" vertex="1" connectable="0" parent="2r3JKYAfRwa4Y5Ds583L-4">
          <mxGeometry x="0.1818" y="1" relative="1" as="geometry">
            <mxPoint x="-17" y="1" as="offset" />
          </mxGeometry>
        </mxCell>
        <mxCell id="2r3JKYAfRwa4Y5Ds583L-6" value="VPN" style="swimlane;html=1;startSize=20;fillColor=#d5e8d4;strokeColor=#82b366;" vertex="1" parent="2r3JKYAfRwa4Y5Ds583L-1">
          <mxGeometry x="280" y="20" width="450" height="290" as="geometry" />
        </mxCell>
        <mxCell id="2r3JKYAfRwa4Y5Ds583L-7" value="VPN客户端" style="rounded=1;whiteSpace=wrap;html=1;shadow=0;labelBackgroundColor=none;strokeWidth=1;fontFamily=Verdana;fontSize=8;align=center;" vertex="1" parent="2r3JKYAfRwa4Y5Ds583L-6">
          <mxGeometry x="140" y="65" width="160" height="60" as="geometry" />
        </mxCell>
        <mxCell id="2r3JKYAfRwa4Y5Ds583L-8" value="" style="endArrow=classic;html=1;rounded=0;exitX=0;exitY=1;exitDx=0;exitDy=0;" edge="1" parent="2r3JKYAfRwa4Y5Ds583L-6" source="2r3JKYAfRwa4Y5Ds583L-7">
          <mxGeometry width="50" height="50" relative="1" as="geometry">
            <mxPoint x="210" y="125" as="sourcePoint" />
            <mxPoint x="-150" y="125" as="targetPoint" />
            <Array as="points">
              <mxPoint x="140" y="190" />
              <mxPoint x="-150" y="190" />
            </Array>
          </mxGeometry>
        </mxCell>
        <mxCell id="2r3JKYAfRwa4Y5Ds583L-31" value="&lt;span style=&quot;font-size: 10px; background-color: rgb(255, 255, 255);&quot;&gt;183.62.50.114 VPN配置的站点，VPN只能单点登录&lt;/span&gt;" style="text;html=1;strokeColor=none;fillColor=none;align=center;verticalAlign=middle;whiteSpace=wrap;rounded=0;" vertex="1" parent="2r3JKYAfRwa4Y5Ds583L-6">
          <mxGeometry x="150" y="230" width="180" height="40" as="geometry" />
        </mxCell>
        <mxCell id="2r3JKYAfRwa4Y5Ds583L-9" value="银结通" style="swimlane;html=1;startSize=20;" vertex="1" parent="2r3JKYAfRwa4Y5Ds583L-1">
          <mxGeometry x="730" y="20" width="340" height="290" as="geometry" />
        </mxCell>
        <mxCell id="2r3JKYAfRwa4Y5Ds583L-10" value="银结通测试环境" style="rounded=1;whiteSpace=wrap;html=1;shadow=0;labelBackgroundColor=none;strokeWidth=1;fontFamily=Verdana;fontSize=8;align=center;" vertex="1" parent="2r3JKYAfRwa4Y5Ds583L-9">
          <mxGeometry x="120" y="65" width="100" height="60" as="geometry" />
        </mxCell>
        <mxCell id="2r3JKYAfRwa4Y5Ds583L-11" value="" style="endArrow=classic;html=1;rounded=0;fontSize=10;entryX=0;entryY=0.5;entryDx=0;entryDy=0;exitX=1;exitY=0.5;exitDx=0;exitDy=0;" edge="1" parent="2r3JKYAfRwa4Y5Ds583L-1" source="2r3JKYAfRwa4Y5Ds583L-7" target="2r3JKYAfRwa4Y5Ds583L-10">
          <mxGeometry width="50" height="50" relative="1" as="geometry">
            <mxPoint x="420" y="220" as="sourcePoint" />
            <mxPoint x="470" y="170" as="targetPoint" />
          </mxGeometry>
        </mxCell>
        <mxCell id="2r3JKYAfRwa4Y5Ds583L-12" value="&amp;nbsp;56.16.71.195:30445" style="edgeLabel;html=1;align=center;verticalAlign=middle;resizable=0;points=[];fontSize=10;" vertex="1" connectable="0" parent="2r3JKYAfRwa4Y5Ds583L-11">
          <mxGeometry x="-0.1319" y="-1" relative="1" as="geometry">
            <mxPoint as="offset" />
          </mxGeometry>
        </mxCell>
        <mxCell id="2r3JKYAfRwa4Y5Ds583L-13" value="" style="endArrow=classic;html=1;rounded=0;entryX=1;entryY=1;entryDx=0;entryDy=0;exitX=0.5;exitY=1;exitDx=0;exitDy=0;" edge="1" parent="2r3JKYAfRwa4Y5Ds583L-1" source="2r3JKYAfRwa4Y5Ds583L-10" target="2r3JKYAfRwa4Y5Ds583L-7">
          <mxGeometry width="50" height="50" relative="1" as="geometry">
            <mxPoint x="440" y="220" as="sourcePoint" />
            <mxPoint x="490" y="170" as="targetPoint" />
            <Array as="points">
              <mxPoint x="900" y="210" />
              <mxPoint x="580" y="210" />
            </Array>
          </mxGeometry>
        </mxCell>
        <mxCell id="2r3JKYAfRwa4Y5Ds583L-14" value="&lt;span style=&quot;color: rgba(0, 0, 0, 0); font-family: monospace; font-size: 0px; text-align: start; background-color: rgb(248, 249, 250);&quot;&gt;%3CmxGraphModel%3E%3Croot%3E%3CmxCell%20id%3D%220%22%2F%3E%3CmxCell%20id%3D%221%22%20parent%3D%220%22%2F%3E%3CmxCell%20id%3D%222%22%20value%3D%22%E5%86%85%E7%BD%91%E8%AE%BF%E9%97%AE10.91.247.132%3A31909%22%20style%3D%22edgeLabel%3Bhtml%3D1%3Balign%3Dcenter%3BverticalAlign%3Dmiddle%3Bresizable%3D0%3Bpoints%3D%5B%5D%3BfontSize%3D10%3B%22%20vertex%3D%221%22%20connectable%3D%220%22%20parent%3D%221%22%3E%3CmxGeometry%20x%3D%22379%22%20y%3D%22185%22%20as%3D%22geometry%22%2F%3E%3C%2FmxCell%3E%3C%2Froot%3E%3C%2FmxGraphModel%3E&lt;/span&gt;" style="edgeLabel;html=1;align=center;verticalAlign=middle;resizable=0;points=[];" vertex="1" connectable="0" parent="2r3JKYAfRwa4Y5Ds583L-13">
          <mxGeometry x="-0.0871" y="-1" relative="1" as="geometry">
            <mxPoint as="offset" />
          </mxGeometry>
        </mxCell>
        <mxCell id="2r3JKYAfRwa4Y5Ds583L-15" value="&lt;span style=&quot;font-size: 10px;&quot;&gt;183.62.50.114:30445&lt;/span&gt;" style="edgeLabel;html=1;align=center;verticalAlign=middle;resizable=0;points=[];" vertex="1" connectable="0" parent="2r3JKYAfRwa4Y5Ds583L-13">
          <mxGeometry x="-0.0782" y="-3" relative="1" as="geometry">
            <mxPoint as="offset" />
          </mxGeometry>
        </mxCell>
        <mxCell id="2r3JKYAfRwa4Y5Ds583L-16" value="银结通代扣" style="swimlane;html=1;childLayout=stackLayout;startSize=20;rounded=0;shadow=0;labelBackgroundColor=none;strokeWidth=1;fontFamily=Verdana;fontSize=8;align=center;" vertex="1" parent="1">
          <mxGeometry x="60" y="450" width="1070" height="310" as="geometry" />
        </mxCell>
        <mxCell id="2r3JKYAfRwa4Y5Ds583L-17" value="BOSS" style="swimlane;html=1;startSize=20;" vertex="1" parent="2r3JKYAfRwa4Y5Ds583L-16">
          <mxGeometry y="20" width="280" height="290" as="geometry" />
        </mxCell>
        <mxCell id="2r3JKYAfRwa4Y5Ds583L-18" value="BOSS测试环境" style="rounded=1;whiteSpace=wrap;html=1;shadow=0;labelBackgroundColor=none;strokeWidth=1;fontFamily=Verdana;fontSize=8;align=center;" vertex="1" parent="2r3JKYAfRwa4Y5Ds583L-17">
          <mxGeometry x="90" y="65" width="100" height="60" as="geometry" />
        </mxCell>
        <mxCell id="2r3JKYAfRwa4Y5Ds583L-19" style="edgeStyle=orthogonalEdgeStyle;rounded=1;html=1;labelBackgroundColor=none;startArrow=none;startFill=0;startSize=5;endArrow=classicThin;endFill=1;endSize=5;jettySize=auto;orthogonalLoop=1;strokeWidth=1;fontFamily=Verdana;fontSize=8" edge="1" parent="2r3JKYAfRwa4Y5Ds583L-16" source="2r3JKYAfRwa4Y5Ds583L-18" target="2r3JKYAfRwa4Y5Ds583L-22">
          <mxGeometry relative="1" as="geometry" />
        </mxCell>
        <mxCell id="2r3JKYAfRwa4Y5Ds583L-20" value="公网访问183.62.50.114:21" style="edgeLabel;html=1;align=center;verticalAlign=middle;resizable=0;points=[];fontSize=10;" vertex="1" connectable="0" parent="2r3JKYAfRwa4Y5Ds583L-19">
          <mxGeometry x="0.1818" y="1" relative="1" as="geometry">
            <mxPoint x="-17" y="1" as="offset" />
          </mxGeometry>
        </mxCell>
        <mxCell id="2r3JKYAfRwa4Y5Ds583L-21" value="VPN" style="swimlane;html=1;startSize=20;fillColor=#d5e8d4;strokeColor=#82b366;shadow=1;" vertex="1" parent="2r3JKYAfRwa4Y5Ds583L-16">
          <mxGeometry x="280" y="20" width="450" height="290" as="geometry" />
        </mxCell>
        <mxCell id="2r3JKYAfRwa4Y5Ds583L-22" value="VPN客户端" style="rounded=1;whiteSpace=wrap;html=1;shadow=0;labelBackgroundColor=none;strokeWidth=1;fontFamily=Verdana;fontSize=8;align=center;" vertex="1" parent="2r3JKYAfRwa4Y5Ds583L-21">
          <mxGeometry x="140" y="65" width="160" height="60" as="geometry" />
        </mxCell>
        <mxCell id="2r3JKYAfRwa4Y5Ds583L-23" value="" style="endArrow=classic;html=1;rounded=0;exitX=0;exitY=1;exitDx=0;exitDy=0;" edge="1" parent="2r3JKYAfRwa4Y5Ds583L-21" source="2r3JKYAfRwa4Y5Ds583L-22">
          <mxGeometry width="50" height="50" relative="1" as="geometry">
            <mxPoint x="210" y="125" as="sourcePoint" />
            <mxPoint x="-150" y="125" as="targetPoint" />
            <Array as="points">
              <mxPoint x="140" y="190" />
              <mxPoint x="-150" y="190" />
            </Array>
          </mxGeometry>
        </mxCell>
        <mxCell id="2r3JKYAfRwa4Y5Ds583L-24" value="银结通" style="swimlane;html=1;startSize=20;" vertex="1" parent="2r3JKYAfRwa4Y5Ds583L-16">
          <mxGeometry x="730" y="20" width="340" height="290" as="geometry" />
        </mxCell>
        <mxCell id="2r3JKYAfRwa4Y5Ds583L-25" value="银结通测试环境" style="rounded=1;whiteSpace=wrap;html=1;shadow=0;labelBackgroundColor=none;strokeWidth=1;fontFamily=Verdana;fontSize=8;align=center;" vertex="1" parent="2r3JKYAfRwa4Y5Ds583L-24">
          <mxGeometry x="120" y="65" width="100" height="60" as="geometry" />
        </mxCell>
        <mxCell id="2r3JKYAfRwa4Y5Ds583L-26" value="" style="endArrow=classic;html=1;rounded=0;fontSize=10;entryX=0;entryY=0.5;entryDx=0;entryDy=0;exitX=1;exitY=0.5;exitDx=0;exitDy=0;" edge="1" parent="2r3JKYAfRwa4Y5Ds583L-16" source="2r3JKYAfRwa4Y5Ds583L-22" target="2r3JKYAfRwa4Y5Ds583L-25">
          <mxGeometry width="50" height="50" relative="1" as="geometry">
            <mxPoint x="420" y="220" as="sourcePoint" />
            <mxPoint x="470" y="170" as="targetPoint" />
          </mxGeometry>
        </mxCell>
        <mxCell id="2r3JKYAfRwa4Y5Ds583L-27" value="&amp;nbsp;56.16.71.74:21" style="edgeLabel;html=1;align=center;verticalAlign=middle;resizable=0;points=[];fontSize=10;" vertex="1" connectable="0" parent="2r3JKYAfRwa4Y5Ds583L-26">
          <mxGeometry x="-0.1319" y="-1" relative="1" as="geometry">
            <mxPoint as="offset" />
          </mxGeometry>
        </mxCell>
        <mxCell id="2r3JKYAfRwa4Y5Ds583L-28" value="" style="endArrow=classic;html=1;rounded=0;entryX=1;entryY=1;entryDx=0;entryDy=0;exitX=0.5;exitY=1;exitDx=0;exitDy=0;" edge="1" parent="2r3JKYAfRwa4Y5Ds583L-16" source="2r3JKYAfRwa4Y5Ds583L-25" target="2r3JKYAfRwa4Y5Ds583L-22">
          <mxGeometry width="50" height="50" relative="1" as="geometry">
            <mxPoint x="440" y="220" as="sourcePoint" />
            <mxPoint x="490" y="170" as="targetPoint" />
            <Array as="points">
              <mxPoint x="900" y="210" />
              <mxPoint x="580" y="210" />
            </Array>
          </mxGeometry>
        </mxCell>
        <mxCell id="2r3JKYAfRwa4Y5Ds583L-29" value="&lt;span style=&quot;color: rgba(0, 0, 0, 0); font-family: monospace; font-size: 0px; text-align: start; background-color: rgb(248, 249, 250);&quot;&gt;%3CmxGraphModel%3E%3Croot%3E%3CmxCell%20id%3D%220%22%2F%3E%3CmxCell%20id%3D%221%22%20parent%3D%220%22%2F%3E%3CmxCell%20id%3D%222%22%20value%3D%22%E5%86%85%E7%BD%91%E8%AE%BF%E9%97%AE10.91.247.132%3A31909%22%20style%3D%22edgeLabel%3Bhtml%3D1%3Balign%3Dcenter%3BverticalAlign%3Dmiddle%3Bresizable%3D0%3Bpoints%3D%5B%5D%3BfontSize%3D10%3B%22%20vertex%3D%221%22%20connectable%3D%220%22%20parent%3D%221%22%3E%3CmxGeometry%20x%3D%22379%22%20y%3D%22185%22%20as%3D%22geometry%22%2F%3E%3C%2FmxCell%3E%3C%2Froot%3E%3C%2FmxGraphModel%3E&lt;/span&gt;" style="edgeLabel;html=1;align=center;verticalAlign=middle;resizable=0;points=[];" vertex="1" connectable="0" parent="2r3JKYAfRwa4Y5Ds583L-28">
          <mxGeometry x="-0.0871" y="-1" relative="1" as="geometry">
            <mxPoint as="offset" />
          </mxGeometry>
        </mxCell>
        <mxCell id="2r3JKYAfRwa4Y5Ds583L-30" value="&lt;span style=&quot;font-size: 10px;&quot;&gt;10.91.247.132:21&lt;/span&gt;" style="edgeLabel;html=1;align=center;verticalAlign=middle;resizable=0;points=[];" vertex="1" connectable="0" parent="2r3JKYAfRwa4Y5Ds583L-28">
          <mxGeometry x="-0.0782" y="-3" relative="1" as="geometry">
            <mxPoint as="offset" />
          </mxGeometry>
        </mxCell>
        <mxCell id="2r3JKYAfRwa4Y5Ds583L-32" value="" style="shape=image;verticalLabelPosition=bottom;labelBackgroundColor=default;verticalAlign=top;aspect=fixed;imageAspect=0;image=data:image/png,iVBORw0KGgoAAAANSUhEUgAAA4MAAAGECAYAAACMDfVrAAAAAXNSR0IArs4c6QAAAARnQU1BAACxjwv8YQUAAAAJcEhZcwAAEnQAABJ0Ad5mH3gAANJSSURBVHhe7J0HXBRn+sfNXZK7XO6SyyWX8r/0XC7tUi69F9NMjyYae2zRRI29YEGwgNhQEAuoiPQiRZAuAkrvvSO9V1vs+f3nGXZwdpmFBVFZeL4fvx/Zd955Z3a2zPvbmXlnUH1DI+rqG1BTW4fKqmpUVlahvKISZeUVKC0rR0lpmWApjpWQJSg+xrIsy+qDRcXHOvwv/i3+Xyz+XVhUjILCIlH6u80iFKn+luYR5zum+b/yclmWZVmW7RtSfqMcR3mOch3lO8p5lPcqhNw3qLauHi4urizLsmw/09nFBU7OKp2cBZ3gKOjg6AgHB0fYOzhgn7097Pbtw969drCx2YXdu/fA1nYv7Oz2Yd8+e9jbO4h1HR1pfmc4C21JKi2TZVmWZVn9cVB1Ta34B8MwDDNwoQC4Y8dO1NfXo6WlBSdOnMDp06dx5swZnDt3DufPn8eFCxdw8eJFXLp0Cb///rsowzAMwzD6yyA6NZTDIMMwzMBmzx5bWFltQ01NDRoaGsRAePLkSTEMnj17lsMgwzAMw/RDBtH5ohwGGYZhBjZ0eqiFhSUqKipQW1uLpqYmHD9+XO3oIIdBhmEYhulfDCorK+cwyDAMM8DZtWs3zM03o6SkBFVVVeLRwdbWVpw6dYrDIMMwDMP0UwbRqDIcBhmGYQY2Nrt2YcOGjSguLkZlZWX7tYPSqaLSdYMcBhmGYRim/zCIhhrlMMgwDDOwoZFE16/fgIKCApSXl6Ourg7Nzc0cBhmGYRimHzOI7hfFYZBhGGZgY21jAzOzdcjLy0Npaak4kAxdN0ijiv72229qg8hwGGQYhmGY/sEgunEwh0GGYZiBjbW1DdauNUNubm57GGxsbOwyDBobG6sZHh6uapFhGIZhmL6OEAaLOQwyDMMMcKytrcUwmJOTIw4iU11drTUMSqeKHj58uEMYJBmGYRiG0Q8GFRZ1MwwWh8LaPQnNqofaaUaSuzVCi1UPVTQnucNaXticBHfrUKhXa5vXPUl5KR3a6ArFZagjtil0hrQZmkRtaJZfbrOr+TvYnfVnGIa5yuwUvpdMTdd2CIN0ewltYdDS0lIxDHp7e6taZRiGYRimLyOEwaLuh0HNYCOpFhI1wmB7iNQo1xbUxOUoB7iehUGF9VWpHjqLEUrrSfN0Fno11lt9nTp/jt1ef4ZhBiT0/US3eOgKqkN1rwQpDGZnZ+sUBgsLC2FkZKQYBjdt2qRqtWdIP65p+0GwT6C5L1TaX3RRp+15Ku/nNCkOpTa01W3b50j7FWn7db3sy/Ooo94ewzDMtYL2Z91Rn6HvYF2eA9WhuleLnoXBzkJSO9rCoMbf2sKgan6lzkC3w5TWZShxBWFQ2unqIu9kGYbpAmkH0NnOQpc6utDdMLhx40a1MJiWltb+98qVK8VbVPQM1b4jVNd9zbVHMcQJ+zX5/qrHdbRB+03hNVLObrQ/ujxNbFdt26nCnaxMvs/q2CaHQYZhrg/d2Zdd6X7veqPL/luXOldK52FQtfPpjrSja/sFU66ws5MHQNWORtzP6BiqOu5ANep0I7gpI4RAzTbbVZhXlzZ1Wi7DMIx2OtsR9OZOojthkG47YWJi0h4G9+/fL9Y1NTVtD4T5+fmqlruJuN8Rvjc1Ak7foW1fId8ndUSXOtK+TNd9hGofpbBBNNsRH2vuEzW2Z1udUIRS6OuwDhwGGYa5PnRnf9Yb+77rTWf78c6m9SZdh0GNHQrtQLTt4CgEXt53yAIfodCWiLTjVz3UBXEnpnUnpdqJ0U5TBy83QztaWg/hf1pP2nGK6yuVayAPeuJzUG6/M7vqKDAMwxBKO4Te3kl0JwympKSIQZCUHwWk00OlMEj2BPHHRPGLWXsgEesI38/FYghq+5u+TbWVd9wvXP5Ol+bR/DbWVi5M0RrKLqNLHdW+rBv7P+X6bc9Nvj9pC3qa6962TtIqtddRhUT1ddW+7RmGYa4m3dmn9db+73qjtD9XKrta9CwMhoa27TwkFXeYbTuT9n1JZ2FQrZx2WO5o36/JQ5cKcSemdSelsVytaNZThT4pBHYIg6qdu5pd7MQV1p1hGKYnyHcMV2Mn0Z0wKAVBUn59IIVCeRiMjIxUTdERVTCRvpfbwo9sf6BCDGr0HazxRa+tvDkpVNaGKuhI+x3xxzzNZagHJ020LUeOLnXanl839hEa20dELFNf//agp3osolFPXqdtPeTtchhkGOb60J39Wm/uA6838v26/O9rgU5hMEnaqUlq7mQExJ2J+h6qbWciziPs7LSEQaWdFu1E23/lpPk0dkgdlyXnysJgktQ27TjF9ZKHQR1Cqnw7aVNhOzAMw3SFtIMge3snoWsYdHBwUAuDmiOHysOgs7OzqlQ32r5DZd+rqvAjP+pFtAWtjiFKW3kHxAAo1WvbF6gtQ226Mmrf91p2OF3V6fB8u6RjSBPb0NindCxT/ZipdT5pf62+TbQ9L4Zhrj3t3yU6qq90Z992rcLSteJq7uM7o9tHBtt2kh3fdPJfVtt/ERVs35fI2qKdkFQu1tXc4cjq0nRxsqpToL5MSfnOVNqp6eblRat2lu3PQ3pMUvsaYVABel6anZYOKG1ThmEYHbiaO4qehkFNgoOD28PgmjVrcPLkSdWUrugYWC5/n6sHJnG/ofA9qq2ckO+XLn+vt6EUjLr8LldxuV3t+wdtdcTlajy3rlCfR3ld2+pIy2xTsY58W0n72LYdLodBhmGuC93Zt13LwHQtuJr7+M7oOgz2eGfQtjNpn10VgsSjjO07oLadf8dFSMGL/lft9BSOxIloK+82smWpIZVL66QqVkBpB6yols4KwzCMNqSdBP0v/7u30CUMNjU1YcWKFWphMDw8XE07Ozu1o4MUDnWC9hHSd6SC8v1E98IgfXdTG7Lvd3FZssfifkT1/S7/W2eUQ6s6Hev0JAy2rZ/8R9KO69oh6CmgVEfah4UWcxhkGOb60J39Wm/uA6838v26/O9rQadhUNwxCDsDcQer2inQ39IvjJf/bttxqP/yqBAGaYcs27lIOx5tOxxp+aoHyqGvQ7ks1Gns8OXr3lZPvhOVOgxKUhsKYVAVcKUiWl/1baCAxjwMwzBdobRj6O2dhS5hkIKgZhiUBz9tdo0qfCh+N3acphz6tJSL+wH17+62fY98v3F5HyZO68l3tMb+RhGNOh3XQzfE5ynsG9X2kTJ0eQ7KdVTbWthe7vS/ln0zwzDM1aI7+7Te2v9db5T250plV4tOwqB6mJN2PvJA1fZ3sVq9y6jPTzsetaAk7hRpelsI6xiipJ1Sm6FJuoVBaT3bUF8HcZmynZ/6jlQWItWQyrWEQdkTF9tTrW+n9qSjwTDMgKSzHUJv7iyuZhjMzMxULUUL8qNdSoj7i8vfv+L3vML3qGJ5+75G9Vi1rA4hTNw/tN1qQet6iCjsC1T7GvX9SVd1pH2G0n6nC7pYV+Wgp47WOu3bR31dGYZhrgXd2Z/1xr7vetPZfryzab2J1jCobSfVMQxq291oBDEZUmhqnybrCIg7c9oJkfIdlXwH1UHVeop11NdZXJa0IHG6fAct32HT30ptk9Rmx5275vOnZWnfHirEnXjnO2mGYRhClx1Bb+0sugqDISEhamFw3759+P3331Vzq3PixAm1MEinj3ZG2/d+Z6FI9f2s+i4X6yt8j2orl/Y5ojRdDIiay5P2AZ2th0TH/UXH7/6u66itl1ylHacana+r2G4X+5nO6rSvV5frwTAM07t0Z192pfu9640u+29d6lwpWsMg7VTF/YDqV1VdpZ3d5R2c5i+jbe1q3Vl3tuNRCHoisnJqu8MOWW2n3xZQ5XVouW2PaeeqtGO9XH75eUnS81P92qtWrqPCdmAYhtEGfU/osgOQdhZXQldhcPXq1WphsLW1VWsYpHJ7e/v2MEg3o+/7dDxyxzAMw1xbaH/WHfWZa7mP74zOB5BhGIZhBgSdhUE6srd79+72MGhhYYEzZ85oDYMEnRoqPzoYExOjmtJH6XDmCMMwDMP0fzgMMgzDMJ2GQUtLS6xbtw7r16/Hhg0b4OnpiUuXLnUaBgm6Ib3kzp07VaV9E/GsFT4qyDAMwwwwOAwyDMMwOg0gQ/cZvHDhAi5evKhTGNQH2k//7+IaO4ZhGIbpj3AYZBiGYQZsGGQYhmGYgQyHQYZhGIbDIMMwDMMMQDgMMgzDMBwGGYZhGGYAwmGQYRiG4TDIMAzDMAMQDoMMwzAMh0GGYRiGGYBwGGQYhmE4DDIMwzDMAITDIMMwDMNhkGEYhmEGIO1h8OTJk+JOn2VZlh1Y0vc/3RSewuD+/fsRFxeH1NRUZGVlIT8/H8XFxWJALCsrEy0vL0dFRQUqKytRVVXFsizLsqye2h4GqUPQ2trKsizLDjDp+18KgxEREXxkkGEYhmEGCBwGWZZlB7gcBhmGYRhmYMJhkGVZdoDLYZBhGIZhBiYcBlmWZQe4Ay0MXrpwFmdPKV8/KXr6DE6fOonTJ+TlwuOzF3BBeM6XLp7H2ZPHcUI+T2eePIOzFy5CeWtdbu+3cxdx4ZKquDMuCO2dE+a5oNHixXM4d/YMTp25oCrobS7g3JnTOKX0HBU9iRPCcz8vzCmu6e8XcP7saZxUrCv3BE6ePotzumyLHiGsx5mzOPPbOeEvXfgdv1+6IL5n1Nb9hPCeOP87LgpP7uL5tm1/9daZYRjm6sBhkGVZdoBL3/8DKQw25B5F2O7lWL5cwRVGWG7nB2frrbAzk8oNBc3hfCQPhSdOo6UyBaFblsPUSDafNg1XYLm5LyJza3BCtXx1TqO1Og1hW43gEVuLY82qYm38LqSNwkCExqQiPF+jxcp4xEcGY0dIkaqgtylC4oG92K70PBXdiI1Wgci49LvwLAVO5CM73BGbFOvKNYOVYwjiG4XgflXeYseQEhCKQPcYFAiPus5vZ3C6JR+RO1Zh08rL67nKzByOKWdQexKoSY1CUlggYoR11szoDMMwfRkOgyzLsgPc7oTB4zXHkB1sC7uQLJTUCb1gDU4WRSPqUCgOHMlBw9lqpB10gNtea1hbt7l7rz0Cs0+i7hTVPiO0l4M4t12w2+2KQxkVqPxNbOYytelIjT4Kn8gCtAgPe+PAy9njDagtzkB6ajL8dy6HjaM1zK3dsGvrfhzJzEJaSRXKigpQkpuBjAyql4oAawscjM1CzvFTaCpLR4CZBQ7ExCEmIxaHPD3gaLkXvhnpSM4IgIvlLuyx3o+gjASkpR2AjaW/UK8Sx1XLV+cizp+pQU2eD9x3eiA0rgTlYnJS5nchhFeE7sOh2BQk1V7A2dYmFB/yQGplCxoKjuJIyAFs9M1T1e5tTqKpsgSFwjah7SIZ528HF7udMHeLQrratDzkFdaglY6c0eytwraNOoituwKRni6vp264hzN8vf1wpL4Xw+DJarQIr43t7l3C+9Ac61auwkpDU2xSvS99k5IQGhQEb9VjUedwxObX4hR+w6mmfIRs3Arf8EgcFdYxKdIfh5y3YG/iGVQJmbwyIQwxAV6IqAPO89FBhmH0CA6DLMuyA9zuhMFTVXnI916LJeu8EZFXI8QDCeq1nxKCyV64O7jC8cgxNJ0qRthWU+yxtYeDtz/8fT3g67oN2/aG4WhuIxrPnURDcRR8TeZgg8lGmDsfRUR+o9D1lnEsDCEebsK0BNQKD8VQcaWcqkNTQRz8D/pi30YDmG/bBJNNQpgx2wWPoBCEZ9eh/sTlEwgvnT+HnP07EZ4khcEU+K9dC3tvb3gFesF5lw22CeFwb2AAfAPtscPMHFs27YJj4AH4++/Fpk2+OJJRhLKqfGREBCIwUFOqtwfmS42xaete7PPWmH44GWlF9Th98QwuHS9AsIMbIpILUH72NFpqchEgzBNf2oTGoqsdBpVpzQpERIAHdkc1oNODxRQGIz1hbm6PgIAA9eco09XGBi5uvRwGf2vCyZIEBAcFCNvaATabtmDT2u3Y5++Pg4KxwvvBz8EZe0y3Y6/PfrhuXQ4TmyCEZtbhjBgGC4UwuA9xJdUQ8h5+q85GUfBW7EsuQ2TYURzcvU0I/ebYsT8QBwPoeYQjIbcCNWfaFs8wDNNX4TDIsiw7wO1OGLxwvBytaS5YZ2ABt9hClJxV7U1+F8LT2SIcddwJt/2HcLT6LM6dOobwrVsQECsESDqj8fxxnKmMhsu6tXAISUd6Q4sYBg+azYOdizs2WDjD0T8BeS10lZmKqxEG6zJQELwTs5etg8myxTBZtwpGa0xhZGCEdSZLYeqVjayqy5FUPQyewcn6fMS77oTdrp3idiN3CM9zy+pFMFpnCfOtl8t3WttgpxByU0rKUCIEjggnKt8BS9OlWL12A8y2yOpKWm7EFjNjLFxtAUurHdjpEIRDQuho/a0Rp3NcYWUTjKOZ1Th9rhI1ecHYbLQPQUcTkBzuBjeHPVi9J0i8RySZV6YebK8G3QqDYU4wM97Y8TnL3GK2CTYOvRwGcR7nzzaiIjsbuVkh8Nxli10WLgjIykFGVhnqTmXiiLcfvGyDkNxQgHin9dgXmomUSkpz8iODRxAlbNeUIwEIc9mAvYm58HV2wm6TlVi9whimlsJ7QXgO5quF+Q/GIKWr034ZhmGuMxwGWZZlB7jdCoMXmnGyJRYexoth45mCxErVOXEXz+JSVQjcrJzhHpiKEiiEQYELZ04iy80Iu73CEZ5f3RYGNyyGXXQ+fB1sYG/rBMeoSvwm5BcxWFytMBjphnl74nB412YcTvKHR8hRuFm4IyFgPbYEZCPtmBC8TrYNFNLS1Igk5+0ITchCdrMQKn47KZbLbSzLRZ6PEHIjS5Bepj5N9NQZnDnftvY0GEljjC2CotIQU9rxGV2qzUJZzH5sPCQEuZNSkLuEs02lKPZeg1V2EYjNb8BFoV5RgBUWGCzDkqXLsMxgIRYumI858xdj2TLhsaCZw2EczlO+WrG36FYYjDuEna7JaFG975TMO+yH8IDeDoMtOF4fDXfjFTBZtgSLFwjbav5CLF62EkuXOSLsWBT8KQzudEV0XgCsjLdgf5Twvm06h3MXKQxmC2HQAKaGBlgibNelBothaLwau+LpNNFG5IX5IdDFB0ca6JrBS8j3d0LEUQ6DDMP0fTgMsizLDnDp+1/3MHgOZ07UI9l+GTbaCh3gNDppTui0nzuFhqM7sM3BH34JFbjQrTBoIITBehTkxiHSYxvMzW3hlQOcOifMcNXCoCPm7g6A54ZNCIyWh8F1QhgUQsNeG7UBZAwWrIFdWBaSslKQ4rWpfRCRdoWAsWThHMxfvFQICxrTyJ1+8E+ublu+EBYuVR+GX3CMEDBVZTIac5OQ6LMPfuUXcbz9IGkjGsrC4LhwLhZvDxPC4DFUpkYgZI8tvAtaUdEgvJbZIQjxdYeZe/Ll11YMoVf3IrZuhcEQW6xeYABDze0jc8mildgsvLd6NwwK2/zSWZymbdJagkQ/fwS4BSJBeNzUegpnLuQhlsLg3jBknj8pbLtiRLtug9fBKMSUS6eJ7kZEVj6KhHlq8xOQ7mcFu6SzqjAYhjDPMGRcuii8R+uR6LIXgSEcBhmG6ftwGGRZlh3gdi8MXsCFs0JnOdMNdttcsP9QNmroFLzTFUi0W4W9vvGIPkan1mk7TTRGdZpoGtLrVaeJimGwCSX1rahKCYCfjTlWb41AWqvQCb9qp4lux6zlJjBeY4+QtAiEHdqPnQbGWG+6BKZeEXDa7gQ/V08EZ6gPIJNZ04zmijSkpfrAeoM9vA9GIF42+InchCOh8N4yF1YekQhOrUJ1s3QBmZBwzh1D3EFfBAbEQO3A3akSZEUdgptjKPLOCltRFYbO1mcjL3wnNm7eAmObI0hOjUNGfDicPWJRJzQrjmBZpgfXDEZdnwFkzjWVojTKBXt228Da2gqbTExguvLyADLO4QfhsNMD9ma74RawEza7LLFuxSJYOIUhvITCYK4QBldiu5Ultgr1d1huwlZzM+xOkI4MhuOw12FkC+/Qi8InIt7JA+FHUlAgO+OZYRimL8JhkGVZdoDb3TB48cIZXDqRjpA9u+DmHYnEeqFObRzc1m6CV1S+6igghcFiIQyaYs9eBzgeCETgQR/4u++DnVsYYgob0CiESrUw2EKd9iIh9LjC0mgT9kQVoCTF/+qEwdA9mGtmB/egdBTXlaOsOA1R+53hstUQ630ihTDohchD8eKtB36/dBH12Yk4VlWHevEayZO4cC4Rnpt3w3mfO3wUBkEhDwihxtZsHvYcqUZhE80n5xRq08IQ4R+EA7EVQou/4xIaUJYQjBDvQPhEl4uD80jH9FpKc5ARZIeDEe4wd4hFWkY2qipKkJLXoKohoA9hUBxAxgEB4iAryrrtsoGLe++GwfMn6lCXFSqEb1tsMVqFDeY2sPX0h/8BT/jbroWFjzsszV3htNkJ/glCeYCgvz+OpBUL70sKg3lCGFwPB1dXuAvlB1zt4GK9EbZiGKxEelgEQrxiUCK8Qy+JYdAHR2PScUy1fIZhmL4Kh0G2z1tfX4+qqiqWZXWUPjNKnyVtdjsMXjyPS5eakH1wJ9zdDsAztghNaa7YaOKB8JwqtOUeCoNFQhhcia2bNmKTFQ0Osge79/oguuI0mukUUCHuaIZB8XYTVWmItjOFkYUHDvs4wsPxKoTBw/aYv9UP0Qmp7YOtpMWGI9x+Fcz9jqiFQfFInrCujbWNaGw4iXNSGFxvjm0btsBK2Ha0/TS1sjDH+hXzYBOhFAYFTpWgICEc3i6BOJqVifSsMAS4e8M/KBm5GvehaK2rQ2l6LBoqA7DTPQFp6YVoqipqX3fRcPe2AWRsgy+X5ZWhur4PXTOoGkBmx44dituM3Lz2Kgwgc/EMzp0oQ3HOQdibboD1bi/4xQvbJzUBWX6W2Oq0G2vX7BAHlQkUtluGYEndKZwQw790mqjmaKLbsS/5LKqachBzOBIH/TLRKrxDf+cwyDCMHsFhkO3zHjt2DCkpKYqnE7Esqy59Vugzo/RZ0mb3w2DbTeebUz3h6e6KzXYHkemzEcZOCcgsl1KM8jWD6iiFQYFzTThTGog9q5dg28YNWLPZuffDYMBWzJq3CEuWLG0fbGXpEgMsWbwAq/eHa4TBS8K/LBz2PoxDoTlopDB4PhmeOw4iKr4AVcI2ou2kaU1RBo7azINjtJYwSNRn41iQJX79dZagEawD05AlbQdNzrfgkhAGd1EYPOyPOC+r9nUXVRhAZpmZAw4cvrpHCrsOg5dw/rdTOFWViNjIQOzocgAZX4Qd2I/QkhNoOXlWeL/1wjWPZ2rQnOuLbUZLsGTOfCxYuBgGtH2WLsGyRfMwb8FiLDJoey8sXbIEi+bNwtaAAmSKl8ReDoMxBcUoPXUCdYWJSPfdKjznJhTnHUXIYboXZrlQl96hHAYZhtEfOAyyfV7q2BYUFIgdUZZlO5c+K9cqDF6si0OE+16YLtkAS8vNcM9qRPVpqeN+BWHwd6Ht35pRGmSBbaYGmLPMsvfDYIQLFuyJQVF5LVpaWkTrSrKQ5WUKS3+NI4O/C0ttjIKvayB8pTB4LgGepquxlgKEoSEMFVwuBI0lC+dhR7guYfBXwdnY5BGPuErVNE3kYTCnGmdPC2FJte6iWcEIPtA2gEx72fFT+O3M1b1wrfMwSKOh1iHJfRt2rjGAweJFQvBaori9JJcuXojFCxdi0QozGFoeQll1a1tTV4LwGl4Stt+J1hh4bbKHj38cMmn71JajJXo3bP3icDijStxmteVFiNm9AC4RHcNgkLfwPHatFV5bA+G1XYD5i7fAxnoj7IJiEFZIz5XDIMMw+gWHQbbPSx3bwsJCoZPxO06fPo1Tp06xLKshfTboM0KflWsVBn8/V46sUGfsNF4Nw83eSKo/jZPtB3GuIAwK0O0Xzjak4tC+DTBbufkqDCCzE7MNN2Lr9p2wsbER3WllAUvTJVgrDiDjgOCDEUim9RbWBUV+cN4fCu+oUtVpoknwtHTBQaFOnMIRWjLhSAi8t8yD3VH1MEjXIFbEesDPWViuvTtc/I+2zxMT4g1vRxvYOnnCM6UZrb/JnrE8DOY3qgpl9MlrBqngDJrKClCYnYHEcF/4bl+G2bOE8LvUCnu8whCbkYj4o77YZzwbBnOFcuOt2OoahozMHGTk1+L0b70VZmkAnzT4W7gh6HAmSqjorBA00/bB4VAW/IMPIdpHeB9s346NhkZwij6GAmHyyZp8pB3YDDMDQ2xxOoiA6GTxtUpNjMUR+3Uwt7CF25EclJ6mBun85zyEOQUjKiZfPKWUYRimL8NhkO3zSmGQOp/8PmVZZemzQZ+RaxoGfz+NptIspEaGIyS2GA1nL4jHgdoQ6p1vxrG4WBRU0GAxqmI1zuF0cxnyo0KRWvYbWqTBNkUoRJxCdXY84iJjEJ1RKUQw8YTNK0caQGatLdy9DogDhZC+4gAyK7DeJxEHnR3g57Abu7wCERjgj0D7TdjheQgeoQnIiBDmOWiLTauFMNPFADJ7TOdgnY0HnPxjEHk0CvERbdMCVMv0D09ATN7lYNdSmo70o6ppAQFtbR1ORlpRPU5f5zDYmB+DhEj150j67NuKHZYbYWLtiQCNaYGhEQhMqUZ1XiLSYg4JZQEIUA3O4n84A3lVLUJEO4+zp2pQSDdyD2qbFiA89+CwSBwtOI7jZ3rlJwABenfWID82E4XH6iD+9iALgyFHE5EdTcsPFIxAWkWLeG3rb81VKEnwR5Cw3ofTylEhXvB6AWePVyHdYQfcg2KRmJ2FY7mxwvM7KGiHXY6RiE6vFeMnwzBMX4bDINvn5TDIsl17fcKg4gVifZ+WElRlHsGeMGE7nb581OnCiTrUJ+6HX2IFshMjEHPQThzoRNIzKhWR0bEId7xcprP2nnB2dccBYd6d1jbwS2tCVSfjulw42YiGBFe42NkI8wYiNLkMxy+cwqXGRAQdzcexSoWZ67OQlRIHz7gKVUHvUhHnCT8nhefWmXscsSO4EAWxBxHqaQtbjyAEZbV2PjBMQy7yjuyHjZ0zXBMa0NB+4/2rwPlT4r0sD6eWIq+2O9HtHM6erEaK5yFhvia0NOajKNqr/Xk7huUgt4ajIMMwfZ8rDoNNTU3Iy8tDbW2t4vTy8nIUFxcrTlOyq/a0SfVpPppfaTqrv3IYZNmu5TDIMAzDMEx3ueIwSIMVPPPMM/Dy8lKcvmrVKvzwww+K05Tsqj1tUn2aj+ZXms7qrxwGWbZrOQwyDMMwDNNdrjgM1tXVwdfXF5MnTxYvwNecbmBggCFDhnQo1yYd3bv33nvxwgsv4KOPPuqg0jJIV1dXcT6aX2k6q792HgbpSHAWooJjEB+fjyoqa25Aa3kMgt3tYGNpCUvLHdhh446wvFqUN9A8pSjOOgxvYdp2cbqg/QF4RXXxQ0JBFCIP2Iv1rXbYwC4sD/nlwrJq85Ef7wc7Kle1Z+MejODUKuV2pHX2coK9qr6lpZWgHfyE55Bfq7l+rjgQmY4CxbY0FebNT0KAewyKahvQoDZNYVtpWF2chQSfHbB2DEN8fjlqFeqwfVMOgwzDMAzDdJdeu2Zw79694gXfmuU9DYMjRozA8uXLO6i0DAqjQ4cOxV//+lf8/PPPWLBgQQcTExM7zMfqh9rCYFN1CUoSD8LXxwabN7vCKzgVpULgaaorRsZBO7i5uMHJwwc+7s7w3L0NFh5xSCiqRn1VKnJivLFrtw+8vITpPm6w2+sIe9cQZFQL7bZorAOFy6I4RHo4w8HRCft8fOB7MAAhyaUorRYCVkkCMsNdYCm05ym2t0/4PDjA3iVSub1Wob3WOPhZCaFrs43Yno+Pr2AIYrNLkZ11FDGBe9vXz816J2zd/OCbXqrRjrq1+fGIC3OBnZ0tNpgHIL2qDnWqacrbSn3+qoIUxAfYwXaHGQxNPBCWWqQYGNm+aW+FwdDQUOTn56OsrKw9EFKdkydPto9aSuHwzJkzYkA8d+4cy7Isy7J66hWFQeowODo6dnD//v3t1/xRGPzf//6nNj0hIaFDW5JSGKQjfUrTNaWOCy3jyy+/VJSOJv75z3/WuT2276ktDDZUFCD/sD1st5lgxdp9cBEDjhCAqtIRYL4R3hGpSK0S6lbloSJqH4zXeyKUAk5ZBo5lxCA0uxX1TdRWEZICvLDfxg2HyoWy5svLJlvqq1FxaDf27nKHe0QGCmXTRDu0l4M4Xxc4bnVEQFEr6jTauxwGnYWwF4V0tWnVyDzsBV8h0HkJ7dUK7VUlecLdxQU7vJJRL9ShmzWrt9dmVfohHHKzwsaNm7FCCINpsjCovK0uz9tQnockYbn7Ha1g77YPpms9EcFhUK/srTBIP7jRsPl0yj0dIaysrBS/zxsaGsRgSNdlNzc3i/djk+ZlWZZlWVY/vaIw6OPjg/vvv7+DL774Yvu1exTUKIzJp5uamorTqFORm5uLrKysdg8fPoy7774bVlZWauVkTU1N+7Kleb/77jtxGUXC85CmSVL9yMhIPP/88+K6iuXNjWiuK0NhTj5KKoXOcoeOOtvX1BYGRZvr0FoUAMc93qqjXfWor87CIZut8A6NRUxuGcoK05AX6wELK38czShBtTgv3ZC5EXWV5agoi0e41wF47A1BsjCtUd5+azMaakoRtWcDvA5FIYraKxMsL0dVfTOalN4/zcVIDvKCp60LQko6hsvLYdAebi4hiKb2yoT1qG1EY3Maory84GzlhzihrniaZ3kUQr28YWsfKZ4q2tTejoJVQgCO8MZGjSODoh22lVAmdOib6yqRH+ECHz9/eEamCqHSG+YbvTkM6pn02eiNMEjD+qenp4s/9lE7FRUV4ndpfX291kBI/9Pj/q70fFmWZVm2v3hFYZA6BxTCNKUOBO04qQ4FtcGDB6tNp1OPaBoFxqeffhp33XVXu//4xz/whz/8AbfddptaOSkfVEaa187OTlwGnVYqTZOk+k8++STi4uLEdRXLhc5ycdASfP6f9zBjaxCCitXnYfue3QuDFPLq0FB7FH47N2HdYgMYLF4OQyMLOMeXoqBG6NCJ81JozEDI9lVYv8ICu72OIqW2QSFoVaKmIhxOKwxgtGAhFlJ7wvttufEa7A6vRF6lZn3B8miEentjr0ME8oUg2LFNKQyuh+m8BVgotLd0hbAeXhnIOJbYMQy2pOGoUOa0/SAShMfqYVXDbobB5vpqHAvZDocDhxGcXCpsk0IOg3rq9QyD2vYF/U26Rl5z27Esy7KsPntFYfDQoUMYPnx4e8eDBndZvHixWh3qOGu7ZlA6JXTJkiXiqaXa3LVrlxgS5ad60k7Zz89P3EGnpKRg06ZN7etC6/Dhhx+Kg9pQHbUdeGUSivxm4627nsePG/zgV3h5fdi+Kb2muodBIXzVVyEraAvcPQPgG3oUYQedYb3SEKucY5FS2PZDBB3xa26qQUlWCtKTDyPIyxNebsGIKRcCmNqRPKEjXHEY9kst4ewdhNDERCTGhCEqYC+2bPBGaFpx2xE2UdUALe4OcHcORFBqhZbTOqkDXYWSnAykU3uJRxB91B3Wa/fA72gQPJ01wmBreseAqM1uhcEGNFRnI8J6BdatWYNV6zbDcstGbF5njEWLjLHGyhMBWgaaYfue1zMM0ncsLZf+pmsL+5snTpwQb5HU3VsesSzLsmxf94rCYHJysjioCw3QQtcBSsGPOg/GxsaYP38+3nzzTTz22GPi35I04AvNr+v1gbrUo2nSADJLly6FoaGhOKhNh7r1JajO9IW16Va4h2cis1pjOtvn7FYYbKxGbVEc3Ldvh19UJrKrGlBTmoGEQCdst7RHaEI+Supl84uWIS3EDfttdsMjo+06vcvTKAxGCGFwDwLjc9pG9GwSygqEstVb4ROVgWyxvTo01GUh1s8Vni4HERot1K2Tt9OZwjpXxmH/mg3YH+YDRweN4FebgHAvb+zbHYpM4XHvnSbahKaGUmRFBiD04AEcOCDo5QKPfZuxwnAzdrqEITqnVL0Nts96vcMg/TBHI432R2i70vWTdIp4VVWVXkqvoebrzrIsy7JXFAZJeVCTwqBU9uqrr+Krr75S85577hHrac6r2a7czuqFhITAwcEB8+bNw6BBg0TpbyrTND4+vsP8bN+3W2Gw4Riqc/1gZUpH2XJQSIGsuQq1x6LhttYC3kfTkXqsHFUlxSgWQlyzONJnNTLDPOBtaw3XlGbUVhcjLy0HuYXlqG6tEYJaIrzWWsLzcDLSqho7tJdJna1jKYiL8ILTNhcExxegoFa1fi3NaK2Xt0dlTWityEVxeS3KO6zfIfH0Zg8azKaiFfXC+jXkBsPXwwM2brEoF9pr1mxPbnevGdS0rohPE9VTOQxePaQwSEcH6X99k9a7u+8JlmVZdmB4xWGQOh40YMzu3bvFkDd27NhOwxuFRc0wuHXrVmRmZmqVBpX55z//2d4edUykad9//z1uv/123HLLLXjggQe0StPF5TYLHZnaUhRkCx0dGkBG7SgQ2xfVFgZbhNeysaoYZWme2LPDBc4+R5FVkS90fiLhbroCNs4RCKXbPxSkITfKDRarHBGQlI/M9CgkhXjBM1V4HxwTppdGI2y/E+y3eyKsqA71BUJgMt8LB9VIn421lUj2MMVu14M4GJ3Tob3C8mQkBezBmsXr4SAE0NQCarMUZeWVqBTeqy2F/mrttTbWoDXREQfCElXrlyq054LNxo7wF9qLTziIUPcdsAsrRX5RKTKD9sHeyQW7Q7MvBzp5eyqb62tQUxCNowEuMFvvieicAhyraUCD8B5X3lZVqG6gwT8ut8FhUH/VlzBI60jz020plKBbV1CbukL3Ouysvd5ACoP6epooXafPYZBlWZZV8orDIHUIaCf57bffimGLOg7dDYN/+9vfcOedd2r1jjvuEAeVkdrz9PRsn0YDyMyePVscpIZ+/dQmTReXW5UiDiDz2ePvYjoPIKMXaguD9ccykO61DiuXL8TcufMwb/5CrNq8Cy5x1ShPOwCHLaZYsXAxFosDyGyBc1wJ8mua0ZQfhXiPzZi/iKaRC2Fm4wXfJKGz21iHFs2w1dKEpvpshDtawMJoUYf2KtNDEbrHCLNnzcG8hYuwSGxzMQzXbcP2oFxU5/ipt0eBrvAgnCzXqtZvEZYaroBVQDEyy5rR2JSLzBhXbF+wGMuEdhYtMIe11xEkNTR3GgbLY9zhts0IC+fPw+w587FQeH5bvZMQV6RtW+2Ga2Irahsvt8FhUH/VlzBI87/xxhsIDAxUlahDI0mPGTNG9ahraPnvvPOOeH341YLDIMuyLNtfveIwKEkh75FHHhE7wbqGQepAHDx4UAx3ukidDZqP/peXUXvUrnw5mrYvlweQ0Tu1hUHxSFhROlKTk5CU1GZqZi4KKoXAV1eKwmxhmliejOTUbBTVNLXd5qG+ElXFWe3zkBl5x1BSI0wTT+ukeQtQeKwSNeKyqMNbj4rCbGSndmyvqaYMZXlpau2RyelC/ZI6YV1K1NtrX4a0fkLdlFTkljWiTgxm9airKkYulYvTs5DXYV75+rXZWFEolKeqrUNWcRUq6XRYbduqSlh/+ZHB5nrh+RxDdpYQAmqEv2Xts31bfQmDdAQvKChI/BGP7juriYmJCT755BPVo66h9aDr0umyhKFDh3Zw3759qpo9h8Mgy7Is21+9ojBIg8bQ9XkkDdqyYsUK8UidFAbpaKE0XfLRRx9tD4PUyTAyMhLbocErqDMitU1/U5lmPWm6XGqP2tVcltz25aoGkLFZawWPiEweQEYP1BYGWZa9rL6EQQknJyfxmm9NehoGKfgtW7asgxQ8r5RrHQbDw8Oxfft2xWk9kcMgy7Isq80rCoO0w/r6669F6W+pXAqD9EutNF1SGkCGOhp0Kwq6PyDNSyN/Tps2De7u7uIOl8If1aPOAu2Ex48fj3Xr1ikOAkP1qF3NwWrkygeuYfVLDoMs27X6EAZpfjo9VNOwsDD89ttvYh0Kg3Qdunw6rYs2pDDo5uamKul9ugqDGRkZirdFUpJuyaTUhtz169fjlVdeUZzWEzkMsizLstrstdNE5VJnhHbmPj4+HabRADOmpqbiNKpDdaVpmmVUj+przis9ltSsp6S2edm+L4dBlu1afQiDFPpoMDBNn3jiCZSXl4t1KAzefPPNatNXr14tTpMGi6F1kaTn+/DDD4v3o5WXk701qExXYZD2LTfddBPuuuuuTr311lvx2muvtc9XWVkpbjdN6cfQ//3vf4rT6Bp4eg3ky+9KDoMsy7KsNq9KGKROAu04aWesOU3esaA6VFeapllG9ai+5rzSY0nNekpqm5ft+3IYZNmu1YcwSEf/aKRdTSkISvNSGKQBYeTTaTkE/U/THnrooXZptOgbb7xRDFvycrK3BpXRJQzSD5nyUbCVXLx4sVoYnDFjRoeRr0kaNI0CsdI0uja/u7dJ4jDIsizLavOqhEGW7U2lMEhQh5FlWWWJvhwGU1JSMGHCBLEtgk6bXLVqlfi3RGfXDNJy6frvBQsWtA8ipqS9vX37IGa9gS5hkEZIVZom18zMTC0MRkREKN4Tly6L+Pe//604ja61pPAsb7crOQyyLMuy2uQwyPZ5qRNDv6rTKVUsy3YufVb6ahgsKCgQB3Wh0z7p2vI1a9bg008/Fe8tSLeUoMcff/yxGITob0m61ywhhUG6trwzaL2ojb4eBrXJ1wyyLMuy10oOg2yflzq41HFkWVY36TOj9FnS5rUKgwS1Q6dw0hE8KQxSu3Td3wsvvCA+lkuDfy1ZskScty+HwaeeeqrDEUpNJ02a1CEMUnjXrDdlyhTxOkrNcl0Gn1GSwyDLsiyrTQ6DLMuyA9xrGQZpfgp9zs7OYhgcPnx4exik00Y1+f777zuEwT179ojzaJPWha6tu5ZhkK5bvPPOOztVcwAZ0sLCQrGukh9++KHavLrKYZBlWZbVJodBlmXZAe61DIMXL14Uj1yOGzcOy5cvF+eldrsTBmmEUc3BYuTSQCsUzq5lGOzJADIkbV+lukrSayKfV1c5DLIsy7La5DDIsiw7wL2WYVBi2LBhePLJJ8UBZHQNg+fOnRPvO0j1dJHWvTe41tcMenh4YN68eYrTeiKHQZZlWVabHAZZlmUHuNcqDNI98mi0UNLQ0BBLly7F3r1728Pg6NGj26dL/ve//20Pg3Rriu3btyM3NxcxMTHiqaYSXl5e7QPNnDlzBjt27EBOTo74+Eq5mmEwPDxc3Pa0TS0tLREdHY2QkBAsXLgQxsbG4uiwVI9GHqXnJJ9XVzkMsizLstrkMMiyLDvAvVZhMDExsX1gmKioKFUp2sNgZwPI0HJ9fHwwYsQIHDlyBG5ubvjpp5/EG9nTaKQUHGmkUlrGyZMnMXHiRDFc0fO4Uq5mGFy3bh1effVVcRs+/fTTYtil8tDQUPFegxQO6bGLi4sYlr29vbs9QBCHQZZlWVabHAZZlmUHuNcqDGqD2qQg6Ovrqyq5DN2XkE4lpSNoNEIo3YRego6WPfbYY2JQI2gwlqFDh4p/E5MnTxaPrl0puoRBuhUEba/OXLFihVoYrKqqEuf96KOPOoRBer4UhOPi4sR6FOgoIN50001ikJba0EUOgyzLsqw2OQyyLMsOcK93GKRBZWg5dIRPE1ouLYtOES0rK1NbhmYZrQutq4Q075WiSxj805/+hAcffLBT77jjDrUwOHPmTMyYMUPc1pphkB7ToDG0zWfNmiUOPsNhkGVZlu1tOQyyfV46TcrGxoZlWR2VTi3U1esdBvs6uoTBJ554Avb29p06duxYtTBIR/+kYEfbk06D/fXXX/H111+rSaOj0imxtA6Ojo4oLy9vb0MXOQyyLMuy2uQwyPZ5qXO6efNmREZGsizbhfRZoc+M0mdJmxwGO6erMBgUFIQtW7YoTpMbHBwsvj5K0yT37duHuXPndpCuGVSqr4scBlmWZVltchhk+7zUOaVf1RmG6Rr6rHAY7F26CoN9XQ6DLMuyrDY5DLJ9Xg6DDKM7fSUMXrx4Cb/9dqZfeOrUaeTl5aO0rEwIhHV6Z0lJKXJz8xSnsSzLsvpvQ0OjuF8mNffxXclhkO3zchhkGN3pK2GwtKwClttt+43mljbYvHUXtljt1jtpvWn9laaxLMuy+m9gcJi4H6b9dncDIYdBts/LYZBhdKevhMHC4hKsM9+OpJQM5OQVsizLsix7layqattP0774modB6igYGhoiPj5ecTpJ06gO1aVhs2nENKV6V6J8GUrTWf2VwyDD6E5fCoObLGzQevyEqoQZiND1lidPnhRvH8IwAx26fc758+dVjximd6Hv2usSBvPy8nDvvffC1dVVcTpJ06gO1aUbANvZ2SnWuxLly1CazuqvnYdB6mBUITc5H4WF9RDvUva70CE9kY/k8AAccHODm5sXvA6EI63uLE6IfdXjaK5Kx1Fh2n5xumBQDI7mNtBE7TTkIismSKzv4XUAAWl1qKMGz9ajrjAWAVSuau9AeDKSyzreM60N1TofDUGQqr6bm4dgAGIL61B/VnP9whCTVY4u1k6FMG/dMSSE56Px7AVc7poTCttKg9+aq1Ac5QXv4DQU1p3AWVU5oz9wGGT6EtTxpZvmnzt3TlXCMAOT33//XfyuVLqfKsP0Bn0mDNKoZampqWpaWFjgn//8J0JCQsTHNCqbZjtXIrWnuQxNab2U5mX7vtrC4KXzv+G3xgKUHNuFhRNMsXlbOMpwCZfONqIlahVmffUWnn34MTz20BN45smPMG1/AVIbzuPiuVQkHViCb+99DE8+Kkx/7CH83xtj8P2qQLScF9r9XbUAid8vAafrUeOzEkvHvI1/PfYYnnjuFXxkGou4Y6eAmjBE7piA54X2/i229y88/dl0TN+ZrtwefhP0g5mwfq/ecY/Y3mOPPSH4EeY4xOFIWTyi3Oa2r99D9wzGSMN98Gs50za7Fi6cbEBDVQh8XDbhh/c3IUYIc1I3XHlbqXPuZDPyDu3B+qH34J/PL8B2IVDWqaYx+gOHQaYvwWGQYdrgMMhcbfpMGNy/fz9uv/12Nf/yl7/gD3/4A/72t7+Jj+nooGY7VyK1p7kMTWm9lOZl+77awuDJwqM4svxl/Pv+23HLY+PwqxhwTuJkfQysPv8ARrsC4F/YgpbcCORtG4mH3l+FnUcK0ZDriST3tfjJpQUlNcL0lkz4mRvCcMIcWBUK7aofTgPOtACBczDy7ZFCKLNHoNABbhHW6/hvF3CBkl6OBxLdTDCpvb1A7Fs+HZM+mafcXnsYnIGlBnvb2hM9jtNnLyDTywRW879pX7/M3T/jl5mz8P2W2LbZtVCxfwHmf/kI/nbvc/g/IQyGy8Kg8rZSJ9d7LdaPfQwvDh2Op55fBjsOg3oJh0GmL8FhkGHa4DDIXG36TBgsLi7GgQMH1Fy+fDn+8Y9/YO/eveJj6mhottNTFyxYAAMDgw7LlKRl0rKl9WP1T21h8OLpZjTnhuGIwy/45qtFWCoGHCEA1R3FpvffhvG+cCEQCRVbslEbvAivvmUEWwo4p+qEOqWgs0LPX6KWEuFjYoz5Q43hJnxHn9Y4kneutQGxSz/HcnMHOKbUQYiG6nRoLx8hm5fCYMQMbMqD6tRUOVIYnA1jY3ccbStUkQn/DcZYPGIJ9grtnRLaO5OxA+uXLsWoeV4oF2pou/LmTG0e8sK2YtPSX/CiEAaPyMKg8ra6TF2YJbYLy527dguCnBbhrTeMsI/DoF7CYZDpS3AYZJg2OAwyV5vrEgZp0JbJkyfj1ltvxVdffQVvb2+xbPbs2e1S2dW4no86KBQySQqDNDCNZh1alzlz5sDIyEg8VVQsrytCVao7Ni8xg31IKlKr1Odh+57awqDIBaGjmbcJM8Ybw1gMOOdw7nQJElyWY82CBZg9cxEWzZmB+T+Nx9hVwQgvbFJdK3cWZ08WIXLnSqw3XIrlxtux2zMORdSkOF3iuBD0DmPdO0/gm29HYiS1t0gIU0arsTfuOCqOq6rJaYmE2zpjzPppAwKahJAmBkQ5Uhj8BsPe+hqjhfYMDIX18CtCcX0Y3I2NMfsrM6FGW00cD4CdUDZtzHZECQ87vY6vTgjA+4zxthAGj8rCoEiHbQVcOnsS9ZE7YWNphg32wQiNT0TdUWO8/7Yxh0E9hcMg05fgMMgwbXAYZK421yUMRkRE4LPPPsOf//xnvPHGG9i3b58Y/Ogxld93331iUJOHwcDAQMTGxiq21x1LS0sxadIkcR1oub/88ovwPFxQW1srLsPW1hZr164V61Dd9nkrk1DkNxtv3fU8ftzgB79C9XbZvmf3wiBw8VwrqhKNYDRlPEYM+Qaff/AWXnjwBXxrnYKkKjFeCfyG345n4eDKnzDnx+mYZ2wF+8PJyBOau6B2ZLAKzVW7MfX/nsHgdz7GkB9+wA/DPsfwL9/CkJkB8MsSPnCqmu0DtHitg6nBWizaGiU8UjqSR52iZPisM8B8au+Hr/H9iI/w9nALOEU6wcpAIwziaMeAqI1uhcELONtSiPD5L+KLUdMxaYUNXO02w2bl93jmye8x3cwThwuFHZdqdkY/4DDI9CU4DDJMGxwGmatNnzlNVB78hgwZ0iEMSmWa7VyptAwaQCY4OBgjRozAo48+igkTJnSsW5WOY6ErMfylzzHf+hAOHdOYzvY5uxUGL53H6dpc2E94Eot2BMGvoBHH4vbB5LOn8dDXG+ERU4rfOqSzJPiY/IqfP5mGtZnAcbVRnykM7hPC4Hhs8U1CFhWdKkJDlCm+uH84VvskIF1s7wIuXahHXYmwrB8mYtFyR/hREtSJGjRX22PmQ69j4fY1mD5dI/hdCIeLEAZnDt2IIOFhp8PIdCsMnsKpxljsGfMqPn7+3/j3vwUffRCP/OsfuOXP/8A9r8zAcsc4MdAy+oM+hkHqJFE72gLDmTNnxJ2crnTVnjZo/ek58W0Qeg9dwyBtc3pPyd9DcqgDferUKdWjrqH26LXU1p4mJ06cEN9nmvz2229dLlfbvAQ9b3ov0nuSGdh0NwzS+06p7tmzZ8X3XHeg73iaj+nfcBgUlnHDDTeIA8hQZ6i8vFx5BNEWoQPTWIuqiirU1DeisUVjOtvn7FYYPFmI+mhTfPreUtgeykX1xd+FkNaIhpIgmHwwGKsdI3G0QTVvOxeR4bIC5jO/xs/+QLPaPl0hDP5+HCdqwmH27rswto9ApNheDVpq7DH7ifewYEswQsvPqa4f1AU6FTUSG959G0Z2CmGwwhXbhTD44y+OyBEednqHom6Fwd+FndMFnD0lLP+4anvTkfNAA7zzhgF2BqSj/JwQclWzM/qBPoZBauudd94Rz+pQgi4DGDdunOpR19Dz+eCDD3Dw4EFViW7ExcXh2WefFa99Z3oHXcMg9Q+eeOIJJCcnq0rUWblypThGgK7Q+/Hpp58WLxfRhVGjRmH37t2qR5cxNTUVL3npjLFjx8La2lr1SB36PL333nvi54QZ2HQ3DNIlKXSZkyb0HT9s2DDVo66he31++eWXYj+Z6d/0qTB488034/XXX8edd97ZHgalss2bN4sdDc12eur8+fPxrtApf+aZZzBo0CBR+pvKNN2xY4diG2zftlth8GI5moosMe6x5/DLukMIKRHqnC5BY7w5vn9kGFZ7xSM8IQJJfi5wLxcmiQcAMuG/fg5mfTkZqxNP43ixOyzmroeFXYQw5SxONWRh73fPYOJqeziltXRoL7UuDWk+azHli5GYb3UI4QVCJ1nq91wUvvTL5e0JnBPWOcYcLhH5iOiwfsGwsTaG2dSxWBoDtArt1PkvxcI5czDU+JCwvqfxu2Z7crp5zWAHTuTzNYN6jj6GQfrFmoLb3Llz4ezsrCq9DHXIP/74Y9WjrqH1oiPddPkCnSmiqYODg6qmOuHh4eIPirRfY3oHXcMgvY88PDzESz6UfhSYNWsWfvzxR9WjrsnJyRFHGacfBZTeA5o/FLz//vvYuHGj6tFlKIBSUOyMDz/8EOvWrVM9UofuI0tnKtHnhRnYdDcMTpw4ETNnzlQ9uoyVlZXYn6aj3wsXLsThw4dVU5ShMPi///0PNjY2qhKmv9JnwiAN1LJq1ap26bRNmiYFNanelUi/9NGOgaQBZOjLnn5RlC9XU5ouHpFUDSBjvmQt9gXzADL6oLYweLa+CEUH1sB4+of43zNv4s2PfsDCLZZwjI2Hj+H3mDhqKkZNXIiFs6dj3uSxGDvXFb7ZtShPdEeA6Xi8P3khZs8Tpi8chZ9+XoTFa0ORKASoczlCYHp/EqarRvq8cOY4ioJXwmj2VEybPKNDe6WZrnBd8B7u/csDeO2HGZg8m9pciOXrdmBnWDFOpq9Xaw/nWoHYZTCYM0+1fpMxe8Kn+HScEzxSaoXPlBcObJ2CkcMWCp3jhZj25VD8uGgTNsVXXg508vZUtKR6wWvTZPzw+Zv41wPvY9SM2djsn430Wm3byhb7s4Hf5IcaOQzqPfoYBiUopAUF0cnQ6vQ0DH799ddYvHhxB+k5akL7lalTp+JPf/qTGADMzMw6mJ0tfGCYbtHdawa3bduG6Oho1aPL9DQMjh49WvE9cOTIEVXNNuRhkN7f5ubmKCsraw+D9H6nH7PpfaB5tJHDIKMLuoTByspKbNiwQfy+7SoMUsjbsmWLeNSc7rFNnzPN7yySxs/4v//7P3z33XeK05W+cxn95LqHQfqi1hwYJiAgQCyjAEiDynz++efim/JKB5CJjIwUD5GT9DeFPDr9VKmuZPvpqTyAjN6pLQz+Vp2NbIe5mDphDEaOHCn685L12JVwBqdKD8J2pTBNLJ+ACVNXwSH7OKrpvMuKWCQ7G7XPQy7Y7IEDdDDg4hmgmubdCVuPWLQdH6DDh9WItl2JVVM7tnc8OxjBljPU2iMnzBXqHyjG8eID6u21L0Nav5EYN/kXrD/UjGKxv1CB4mRnrKdycboRNneYV75+bTRE22LPqqlq62DknIzYik62VTJwSt5H+60ax3P3Y5XRfkRmC3+rihn9Qd/CILUXGhraQRocjK7XIigMvvjii2rTCwsLxWlKSGGQ9j26kJmZCRMTE3z00UeKUlCgUbMdHR1VczC6oksYpOny11aS+grU4SWoj0E/CMin0+Ug2pDCIPURdEEeBum9T0eI6YgLhUH6wdnd3V3sw9xxxx1Yv369WE9CHgbpPUtHmOkzQnAYZCR0CYP0g9Mnn3winiHx6aefdhoGJeh9a2Fhgdzc3A7fXa+88op4CdVrr72Gf/3rX7j//vs71KEfOZj+wXUJg/QFTr8o0MAtFAjpy5DK6Jx/kk7FoABGh6ZffvllHDp0SDxdUwxlCu31VGqP2pWWq2T7cqvSUXJoJYa//AUW2PAAMvqgtjDIMExH9C0MhoWF4e9//3sHqQNNI0ETFAZvvPFGtenGxsbiNOpg0frTukjSfDQ/jSotLycpnEhI89L1iHQ0n3akmtBzol/rX3rpJTEQMN1DlzBIIVv+2krSab7SoBcUBulyE/l0uvSDoNPl6H0of53p6N0tt9wivp/l5aT0PqV1ksrefvttrFmzRuyoS2HQ19dX7IzTcunHCBq0Y/DgwWIYpOclzUvXBNLRGRrwgz4HtG4UVgkKgw8//DBKSkrEujyIx8BF19NE6X355ptviu87ev/R+1V6r5F05JD61PIy6YczOfReox/V6F7b9J1On6EZM2Z0e/AZRn+4LmFw//79+Otf/yr+6kA3d6c3OZXRl6g0kAsFMLoHIQWyxx57TNyhX40wSO1Ky1Wyfbk0gExTHaorq1Bb34QmHkCmz8thkGF0R9/CIHWMaF5NqfMsBTcKg2+99ZbadFoPgpZPR25o/yL5yCOP4KabbsI999yjVk76+dHQTG3QjpOO6tDAIXS6FJ1SqAmFiv/+97/i0R6lsMh0ji5hkDqn8tdWko78UQeaoI4snQ0kn06vPUFHiWmsAPnr/MADD4h9Ezo9Tl5OSqd5HjhwoL2MgiONc0D3JpbCIM1LwY76MHTKKB2llMIgvY8056V1pPXSDIP0XqT3JNWlzxkzMNE1DFI9eu/TaZ0UBlNSUtrfa+Rdd90lnm0nL1uxYoVq7ss4OTmJR7PpPUnBkL7D6Qjit99+q6rB9DeuSxikjgJ9IZL0t2YZ3dqBAhid/09vQrp+8NVXX70qYZDalZar5NVYLntt5DDIMLqjb2EwLS0NkydPFtsnvLy8xCM0cjq7ZpDWgzpD1Imnjrc26QdLOoOF7kcrQUGFLmegjj5d8kCnX40fP14ML9RporNbpk+fDk9PT/41vYfoEgYpaNNgcNL7h47o0rWDcihoabtmkE6to0BGR+eUXntJOh2OrgmloyUEHUGWptHIo3SEmE65o/sk0w/I1MGmICgfQEYKg/SekealHwvGjBmDmJgYxTB49913i8+J/qZT+ZiBia5hUEK6ZpC+c6X3Gknfl48//rhaGR1wkUPf59TnpfchLZdGJqWz8+j9SdPou42+35n+xXUJg11JgwFQAOyq7Eql9qhdpWmSV2O57LWRwyDD6I6+hUFaDg3oQdeT09907R5dM0OnPdFw/XT5AV3zTZ0f+ltS6tBLYZA6RJ1B60ltyMOgJhRKpAFkDA0NxQ6UdCoi0zN0CYOJiYlYsmSJ+LrSKbm//vqr+GMyvd82bdokltORYTpVV/4eSEpKEueXwqDmoDCaUBCjaz+l944c6ZpBGgRvypQp4il60jWDSmFQjvyaQaUwyNcMMkRPw6Ac+vGKfvRYunSpeLootSdBt1OTPhv0/UU/rBG0XGmgGeoH01FH+m6j71qqS2VM/6BPhkGW7Q05DDKM7uhbGCSoXbquii4zkMIgLYdOraP7/lFnWy4daaFfvYneCIM0gAz9ak7BQxr5mjpbVKZpQUGBai5GF3QJg0RGRoYYwOhMIikM0utC4ZxCoOZ7gAIXdXCJ3gyDBL336TRReRikDjzNR0P0cxhkeoKuYZBOR6Z7nioNIDNp0iTxuj8aXImOXtOZFRL0/pY+H/Q9LkHLpVOj6ei7NFgMlU2bNk2sSyPnMv2DHofBgsJCOAs7Rw6DbF+VvtTomh7qHLIs27n0WelJGNwhhEETU9PrEgapzeeee04MahQGhw4dKpZRGKR7z2kyfPjwDmGQTgOl9dEmndZH9aQwSOsqTaPTAylMUOeKOvLapLAyb948cX5GN3QNgxToKOTTgEJ0k3c6PVcKg1FRUapal6EBXzTDIB01kb/mmiYkJIgjjPYkDNL7m65DpPeBpaWlWE+CwyCjC7qEQfpeou9aGv1TGkBGTmdhUIJOaafPG10nSH9TuJTutS0faEaqx/QfehwGs3NyxJG8OAyyfVXqnNL9JOkUB5ZlO5c+Kz0Jg3SNFl2rdz3CII0GSddv0TVhy5YtE8NDd8MgXQ9It5PQJnXIaSAPKQxSZ0qatmvXLrE96oDRYCTapPsWchjsHrqGQZpO7yG6Ro+O0NbW1nY7DNLQ+fLXXNMHH3wQf/jDH3oUBul5FBcXi+8Det/L4TDI6IIuYZCu/XvyySfF9480gIycrsIgfZfSZ4jedzSADA26RNCpodQWnT5K0Lp88803Ot9+h9EPehwGk5NTxF9UOQyyfVX6RZ9OIWJZVjfpM6P0WdImff/TgCl0u4brEQYlqPPz1FNPiUcHdQ2DFCIOHjwodmp0kbYNQessL6PrbygQdAYNEsJhsHvoGgYlaEh9uo3D9u3bdQ6D9P6l94n8de5Mei9rQq/9Cy+8IB71k4dB6mzTwDASq1atEm85IYfC4PPPPy+uD4dBRhu6hEH6jqVb2ND3qvyaQQp5dPsb+tGBrpWl70f6YWvq1Kni+1SC6tH7mH7gos8QDZ4o8dNPP+Hnn39WPYJ4rSBdr023f2P6Bz0Og3SOPV2kz2GQZVl2YErf/xSG6KjctQ6DtAzq4JB0VJMGNqCOjBQGx44d2z5dkk4plcLgmTNnxM4MXS9D19lQZ1+Cbh0gHQWiU6akekrQ86dOu+ay5NL1YhwGu4cuYZB+wJC2MV2rSe8BClFSGKRTRuWvA0nXmEphkN4rdN0TvVfpNFP6cUCCbt5NA9QQ9L6letLN6umIotQevfdpuVRfHgY1kQaQofeR5rx0lhWHQUYbuoRBOfIwSJ8j+t7bs2eP+Jig71v6EYIuDSCkAWRoMCa6RlAzDNI12TQyMn2f03uYjr5TmKRrB5n+QY/DIP0iSr9CcBhkWZYdmNL3PwUw6khc6zBI13FRB5uUDwAihUEatl+aLikNIEPrQetLRxRpJFD6pZxOo4qMjBSvjaGjONRRp/t00Q3B6drArVu3iqf6aUJhkDrxmsuSS/ct5DDYPXQJg4GBge3bOCsrS1XaNrCPNICM/HUgb7/9djEM0nuTAhcNOkShkk53pmsO6YcBOkpCtxyhkWop+FF/h+67RmdDUSCkAYGk9uSn29F7/osvvhBvB0HhUq40gAwFRWleaVh/+hzQyOV0/2V6P1F9uj3FfffdJ/4wQY/pdGhmYNLTMEjfsfTjwsiRI8XPigS9v2nkWzqtmm6Nk5OTg48++kj8LiboPUc/psnfvySFRLoHJ71vaV4eQKb/wGGQZVmW7ZHXMwxqg5ZBv4T7+PioSi5D1xYaGRmJAfChhx4S11OCjgTStWF0fRdBgYGuoZGgDpZ03YwcOj2QAkBnUMeLjlwxutPd00TlUOf2n//8pxjsNKGRFmlADPoBgI5+0BFiCTo6/Morr7QPlkFHSugUOQkKhHRPya748ssvxdCpKZ1SrQQddVGqL5c73gOX7oZBOiJO16zSUT660bz8hxI5FBi1/UhFp5QqvQ/phy+lwWcY/YbDIMuyLNsj+2IYpF+96SgK7dw0ofWh9aBOFa0jBQ4JCgAUBKUyWk+6d50EzUvPQxN6LvJ6StBpVUrzMtq5kjBI89D7Sh70JOh9Sa8ZjYhI/RjqaEtoltFrRq+dBL3ONG9XUD35AEKS2ual96pSfbn0fmQGJt0Ng1SXvnfp/U+fA22fIameEjSv0vuQpFPnmf4Fh0GWZVm2R/bFMMj0D64kDDJMf6K7YZBhuguHQZZlWbZHchhkrhYcBhmmDQ6DzNWGwyDbb6XTGWhob5ZldZM+M0qfJW1yGGSuFhwGGaYNDoPM1YbDINtvpc4p3f+MLrxnWbZzpXsFKn2WtMlhkLlacBhkmDY4DDJXGw6DbL+VOqd2dnZiZ4Jl2c6lzwqHQaavwGGQYdrgMMhcbTgMsv1W6pza29ur3uoMw3QGfVY4DDJ9BQ6DDNMGh0HmasNhkO23chhkGN3RlzDYcOoiylvP95rHT58Th0pn+5Z0qw9671AHWGk6yw4k6fuTOuxK01j2SqTbMXEYZPutHAYZRnf0JQxm1p5FePFpNf0zG+GTUiJYKFgnmCdYIViqWOadXADPxEo4HilATmlth+fFsizLsgNBCoQ9DoN0U183N7cehUE69SMlJUXsHChNJ+nmvzk5OYrTWFYXOQwyjO70NAza2NjAzMzsuobBHf7pMHHYC1NHC8FoQVPBA4JOGmU+WOvkLNTdhGXWARixYCNCopI6PC+WZVmWHQheURikHb6Tk1OPwqCHhwceffRRsdOgNJ00NDTEN998oziNZXWRwyDD6E5Pw+COHTtgYmJyXcOgdWAG9oQeQUBWjGCCYITgUUEqo7+jBcNVZZHwS4+F45FSTDTagUMxKR2eF8uyLMsOBK/bkcGSkhJx3k8//RTBwcFiGf3/1VdfiZ0IemxgYIAhQ4a0zzN37lxs27at/XFPpfZpOW+++aZOSuvH6p+6hMEMJwOsmDULszYfQrnw+GJbsUhjXjQOLBuCLyZtg1dqOVpQgrzonTB49118JPguOX4FDJwyVHMwjP6iz0cGt3nFYoWlG9bu2ge3KBccyo8RymMF6X8yWvY4CqH5KXCLrcTkldYIi+UwyLIsyw5MrygMXuk1g3SqqIWFBdLS0sTHrq6uuPfee5GXlyc+1gyD9DeVSY97KrVPyxk/fjxMTU21Ssu67bbbxPVSaoft+3YWBs+fbkWWuxHWzPwQ774/Et/OcEaeUC51SWtSg+C9bhzGDH0dDz9vgF3h+airCUOSlzHGTDHHuvV0b7YVmDH1V/wyxxLhdcDZS6qZGUYP6WkYvNbXDKYUNsAiOB0zXcKx3DMKfvFlmLnTG2+utccbZnswzmA+DqRS+EtUhT8pGFIZeRQheUlwjangMMiyLMsOaK9bGKRrAenXZMno6GgxdP3973/H+vXrxTI6evfcc8+116G/ezMMdhXydK3H9l21hcHzx2tRGeMKszk/YMnScRj6wzyMl4XBUyUJCNhljGWzvsPspdPw0suG2EdhsDIOx+L8sCdFqCOOdp6DoE3GWDpyIWyqhTL5YUWG0TP0JQy6R6ThQwtX3LzEAg8v2IDlu/3w7AYHDLLxxSArL/x18ASsd/OFV2IYDmYcgW9atBAOgxFWGNWNMFiBY/m5SEssQLXwuJnK6oqQnxqF0IMHcVD0EGKzSlBST/Ub0NxUgJSwkMvTgw8jMKEYNfVNGm3LrDmG8oyjqvYOIiQ2C1kl9WhtrkNzZTpiDgUjSDUtIDQc4ZnVqGnQtrOuQElOIo6q6rcZgoj4TOTVNgrbvBCp4aE4JJYfQlhkOoqE+Ro7tKMpXdtfhDRh3QqKKlHfYXolSovykBKXd3lbaViaFoGoIzGIyziGWoXpvWMp8jNzkJkubHOprDYfmfGRCBGfc4BgGBILKlHRQNPrUFedjfgAfwRL2yv0CA6nlAjv0bb3p6JVBShMiWyrLxiakI/88ga0Nlah9lgyIoT2AlTTAg9HIzqnBk1a2ytDQVoMIlX12wxFVGo+ioTPRkNtLhKDAlXrF47IuGyUCPO1dGhHU2He+kIkHslEcXkNGjpML0dhTi7SUwrFbaXZXnNjHY4lBSMiMh7JuWWo05jOsmz/8bqFQT8/P/znP/9pd8OGDR3KlKR6Su11xx6HweZ6NFUXIjNZ6OyUVqO6qeM8bN9SKQxePN2MqgQfeK0ajpGWSYiP3IVtxsZtYfDSRZxqKkWS3XysXr8Fq1zCUXfUGO+/bdwWBsUWLuHSxdNoKi1AUZ4XdhubYvkvuxAuTDkrTmcY/URfwuAwO28MsvbBIK9oDDLYjEEjZ2OQXRAG7Q3AoKUWuHH1Lrz0/UIstliNLV5eWOcShrVOpgjMjhSCIB0h7CwMtqC5oQY11b6w3bQOM8dsR7xQXt/ajMa0Pdg68yM8dutf8de/3oa/3vI4vjZygVu28JyEoFVbug0/P/Mo/i1OvxW33v8s7hhui5jscmG6+nYTbWpAQ6wTvBe/jz//leb5K/79/RqYeBegtToTdYfn4vMnH8Q9Ynt/wZ2PvYjnF0YgPq9Gub3Ww9i/fjze/+PNYnu3im0+hrfHrsK2tGLUVWzDr/8T9qVCe7f+5Uk89docWAshsaST4NPS1IjGuhxUlO/E9C8NsX1fBPJk05sbalFbHQiXnRsw5ZvNiBXK5GGvRXitG2sr4TH7Rbz/+hB8u8gFqbLpvWJLM5rrhX1ylRs2LTbB0nmOSBHKW4TXrCFhMwxHvo6HxW14B/765ycxyioMQYVNwrqlIydmDUb8/Q7cr3rN/vLvd/HMz64oq6XXVGFZTfWoC7PC9qmv4xbVa/bkRBvYHCpBa1k0Mtx+wkv/+AfuUr1mdz8/BB+vjkFJjZb2Wv1hM/tLvH7jn9rb++tfn8Bnc3fAPjMDuQkmGH3PP/EgvWa3PI83hq6CQ10j6hXbarOF3le1SUhPtsLIV5fCMTBFDP3idOFz11wvvL+rvLBt1VrMn7YHSUK5/AcBes0rchOxb/y9eO6l4Zi66SCyZNNZlu1fXrcwSB0C6iRIUkdBs0xJqqfUXnfscRisTEaR/wIMfuA1/LQ5AAFFHedh+5ZKYbD+iDUcV0/CJxszUNF8FhdLnNvDYNbJemRbDBE6iHthFVaFcy15CmHwJE7WR8JiyEN4/u4PMNLYFRFnz6tda8gw+ojehEHXQAxauROD1uzCIOMdGPTJOAxasgWDZplg0A+z8EfTPXh48I/44icjjFxkiQlGttjoHoWgHOnaQe1hsLm+Chk7x2P8p0/ivv98hLfFMNgshMEMeC7/GcvmLMHqA4lIjItCouU4DBs5H9M2ByGnJBG17pPw86YQ2B0Upicegq/jJkx7ZTDWHMxEYmXHbdcaZY3tM8bj7Q9/xfrEREQIpuaWoKS6Ea0lSah3Gi10xIOw25fa84LnvsX48t6PscIzAwkVCu2JYXAJxj47CeuEtsIFExNTkZl3DJnJkXD/5X5MXOWO3cL6h9mtw/qpQ3D/dE/E5lYotNVmeYw73Be+jX8/fh/ueGIKDNXCYAuybH/Gz189jX/95138TyEMVmTHYf8vj2Po8HfwzOuTMOkqhMH6YxlI2fg5vnjrMdzzn28wTAyD9UIYTMG+n3+AwbL12BwgbIuIACSu/xrvfrsUyx2OoiA3BDnOszBiXSy8QmlbBcHZ0hgzPv0BZrF1yK1RWF7YehiNHoMhI5fDUti+cYJp+eUoF8Jja04IcvdNw7B10XAPofacYbthNr57dhRMj1YjR6k9MQzOwuSP58FCaCtWfM3SkF1UjuTDLrD79QWMMAmHe3AigrctxpKpP+Dlpf4oq9beFzoWsgM7fnkNjz7+b9z2xBxYysJgY2UR0iy/x/APHse9//kMnyqEwcIYH9hNfRIfDfsAT770MxZyGGTZfu11C4M0KMuXX34p3j5izpw54sAwVPbGG290am8MINPzMJiEIr/ZeOuu5/HjBj/4FXach+1bdgyDtYjfuwAzXrkbtz/6Ml5/82288+qTeOzBB3H3Y2/hjdHz8Ovgu/H0k//BY8+9jnfeFOo89yBuv+1B/OcjA5h5pQotXMTF862ozIhFYrQDthsvxZJfzeFaBpzmRMjoMfoSBqdYOeK2OWvFAHjzVEN8+Isx7hv6MwaRk5billmm+GnNcmxyccYO/0DsCg6CZ2I8DhV0fc0gHRWpTBS+33fOxISRE/BJexhMht3M8Vg8ZzW2pwt1m+rQGmmIKcJ3xs+rvJBeV46mrFBEZNWgqJraykBS0FZMuPdzrIvIRop4WqK6qbsNsGHhbPy6KxrZwmO1U/nqKtCcFYLIrGoUiu3lIT18J6Y/9CwWuiXjaJmsbrsUBldg0isLYC88Lm8vL0DmEVv8+vDrMPZNRmyVEKAyfRFoOQX3v74WvslF4umdHdsT6pVkIjNwO3YZf4WX3piNVRpHBitTAhG4ex6mjRNCrUYYrEo/hEM75mLYLyuxw3IWxv4wF1OvQhhsqq0QQqsHPLZMwtCvfsJoMQzWCWEwDluHf4nFq2zgmCPUrclHa+iv+PKzBVhufQg51YWoyYpESFYzyuuorUSE2ppi6gvjsTm/DvmN6ssh4zdNhpHBChi6JonbQe30yuoi1GZFIDSrSdVeBiKdTDHjxY+wKKwK6cJ2l7fVJoXBhZgxzBQewuPL74EsRLmZY/YrX2FVXAUya4XtmrgPe9f8ghe/2oq4ilqtp27WFgiB0nsDNi4aJuzHFmC7LAzSkdyKeG/4bJuGkd9NxrcaYbA8zhP7tyzAmNkrsG/nDHz1+XwYcBhk2X7tdQuDFLAoaFHgkgaGoYFk1q5d2+6HH36Ip556Sq0sNDRUsb3u2OMw2FCKmuxA7NuyGz5ROchW/JWP7Ut2DIMnUJF+GIF7NmPzZpVG4/C98B58ZfAvMLQ/AC/7rdi1TTXNbClWzxqCfz86BGOW7INveoXQgpwqHNmxCMtHj8bio0ArnyfK6DH6EgZ3+x3FZ0IH/7+LzPHlyp3Y5HwYb45bgD99Mh5/HD4H94xdDOtgV4TkHBGCX4KgfPCYzsNgu9l22Gq4GN+KYbBFCIPFiHIxw0YDIbzNX4M1q1dizdzR+HGWOTa4JYrXcdGRMrpuLdnfEfbmxjBesRoG83YjsLAcpWrt0842A87zfsCkzz7BUGpvTZu7fOMRq3TWSW0qkvw2Y/iz32JzaBbShHDQoY4YBmdj2APvY5TQ1nLBzU5CIEs/iuRQcwy76TtYRGUinepWRyPeexXeuu9n2MbmIL9DWzJrctEcsxhff7IYZhphUDTXBXvXLsansjBYlRqCoL2mMF61Bis985F/ZAOW/Lz4qoTBdtMsYThjMSaLYbBRCGoFCNu1FGsWzcfcRcL2NV6ONbOGY+TsndgdlKkKy3Q95zHEelhj90ZjrFhmipUrnRHZ0IgqtfbrBVNgPXYwxn77HUZRe6rXbG9INtJK5XVVVscg2HYNxn0wGTvSalAgXluqKYXBifju2c8xXmhrpaCFRwxicsMQstcEYx7+CbtKq1BAdSuD4bfTEJ+9uBieZdUa7ykNK+KRd3AxXntpMWzkp4lKZlrDbMFijJaFwYp4H3juXAVjsy3Y5JOK6mhjTBqxmMMgy/Zz+1QYpEFlrK2t26UjhzRojLwsKipKsb3u2OMwyOqdHcOgAmWXTxOVjyYqciJf7TTR8tpSVBdkIec4cF4cObQO0bsMYDx+JBZEAC0cBhk9Rl/CIN1aYrt3LJZsdoHz4Rwcyj+On7a445WfluHlSYvw+eIN8E6lABgvC4DSKaI9CYN0zaDQWc6xx26jsfjiv6/jjddfwKN3PIyP59nANr5KNR/tRHPgbz4HM7/4Ct+MWootgZGIPVaLKrWjTDQgiyfWjfgE7/7f4/jvW2/hrbfexFsvPYrBP66HmWcBytrrkhUoiXeFq8lsvPfdTgRmlaJSbbpkAsIcjDFdbI98Bq98PQ8Lt9kh4KBGGBSCTcqhzRh64zBYHM1QlWmx22GwFkm7Z8Hgx6/w1szdOCi8L/x3/4oxX4/GV+PWwSkuTwxaSgPNXJFqYbDtqF1ZhhU2/jocQ55/Da++9BwevPVBfLnGB97pNar56HTLDLgb/ohJQ4Zh1DQT7AiLQWplM+rUxgWgU2kdsPitV/HGI0/jOdq+b7yGt/73ED6cZgvrEOH93l6XLENBuA12GC7At1PtEV/ToHb67GWPwtt8PiaLr9frgk/h5WHGWOtkB2drjTDYGo1QOxOMfugn2JRIZVrsVhhsEcJgDaI3/oBp48fgq0V28Pf1gL/1JHz+wWiMmb0D3loGmmFZVv+9bmGQRsx6/fXXERQUhJEjR2Ljxo1i6Lrxxhvx2GOPiRdR33XXXbj//vvVyq7raKKqAWQyktKQV1LNA8jogb0dBnOPuiPYajkW+WcjIT0b2dkO2LZkFn4evhp7S4BTajMzjH6hT2FQ8z6De0Pz4HwkWfg7TZD+bwt/h4uiEFYYjUMF0j0G28JgaH43w2BzA4JMvseyhXNhGFiN+qrDMP/qP3j+o5/x645INDZrzC+ErfiANRj+t+cxxyUNUWqndUph8FfMn74DflQmtN+aao55n4/HuF+24UB7e01oqAuCi+lMjH1lHIwTWlEknoLYlbRD94H52OGYOHw0Zu3SCIMtKeLRwm9u/h6WQhjM6DC/zG6HwXR4GI7EN4/eiltvVfmXP+Hmm27GTXe9gueGb0Vsc4uWcHQFqoXBFrQI+2yv+W9ivtEGbI4oQ3GaG4xfvR2PfGqAtW6JaOwwCEs0Am0WYdRjn2DB4VpkiKfnSkphcAqWm7jhEJXVH0NrojHGvjwK09e4IFRsj97Xjaiv9cb2Xydg4pfzsSmV3j/ytrRJPyq4YPkHQzB1xs9CmxphsCUKIUIYHPXIVOwWwmBhh/lldisMCp/N1iTY/jwYHz4ge81uEV6vG2/GzfcNxkcz7ZAszNf1yLMsy+qb13UAGeo0PPTQQ3B0dBQ7CRS6KHzR6aKffCJ8GS9YIHZO5GXXNQyKA8jMx+D7X8UUHkBGL+ztMFiX5Q4/g3dx059vwS23kH/C8yOMsDb8PC78rpqHYfQUfQ6D2/zcYHvIWfibTgu9HPr8M7NgdzgF61w2IDCbyuLE8tD8ZHjE1+gWBoVQUZ+xEwZT5mLeSkdE1Qjr31yN0hxfbJ46AQsXbYQDXZOm1kY98mM8YTHkDkzYkYhgtekKYZDCW8NR7Jo+EfNnrsLObFVZaxBsZk/BzPHLsD4oD8fqhf1nJyNJXpa2bzz2zZ6IBdMUwmBZBGJcl+GFf8+HU7zQbof5ZXY7DDag6lgeclJpMBSVPksxdeRP+GGaFfxVtyro9aNM8jAoBLWWlI2YPOxXGG87iMTaZjQ1lOBYhgdWfv8dlprtg3eBZht1SDmwFeu/ewYj7WuQeEw+TSEMttQKgTAMG78bioXGO+GUT/WqBX2wYeQP+PXXjdgRXoTSBl2fa51gFLaO/BYLliqEwWN+8LZaIuyPViKwrEbjSKSG3T4yWI+Kgixkpaher7gIJO6fhe8++wlTl9kjrLBCPDrORwZZtv953cIgSR2EsLAw/Pjjj7CysmoPgxTCpFNHlcqU2uqOUsh74oknxKOT2nzppZdw8803y8IgDyCjb+oUBs/Wo1p4L+cX1eM34aFaprv4G84fL0NGOnVehL9PN6CpJB1Hjx5tl+7BVHFcVZ9h9Bh9DIOHCk7AOjAb+8KD4ZceIpTJTweNgmtMkhAUk+B01Ac7/G2xMyAUu0PisSc0AVYHEjFmiQVCo5M7PC+1MNgihMGKvTD84WuMGW+CnfHCdDqSl78PRt+Nx7RZW2CfkYNMJ3O4p5SqrifPR9ohK8z892OYvi8FEYmHEbB7B1YKHetwofNd25oH98XjMWvKLBj4FwnBQgiIBQ5YNeJHTJ1uDpeSY2hI34s1M37EjDnrYOEei1T5ACQl4Qiy3QFjAzscFh6L99VL80bUIX/YxQl/twg79AJHmIyegCnTjGAe6oHVrz6CuQ7xOFzUiqp4V3is+h53fLQVIanHUF8agRC7nTBatBdhQltqA8r04JpBtelk6pZre81gUylayq0w/b3BmDR3F5zThOkNpWjN2Y6Z7wzHHFNHuCckINndBo5ZjSgWr+fLRITDSsx89W384leL1FR/uJpbYf0mL0TRfSRbs2E76TP8PHc11h8uQWtjufDcd2L2+yMwa9U++BVno/jIdiwcOwLTF27FLv80ZMmPLhYFwH2LFdat3y+0J4R6KktwRNChCOxPEf5uFAJnrjXmfigESaMt2OSyHcafvIFZfuVIKm9FebgVthqMw1MjbZFZWYfG4kDst9wGMzMPHBXaUjtq14NrBtWmNwjrkriKrxlk2QHgFYVBmsnFxaVHYTA2NhY///yz6IoVK3Do0KFrHgYphJqZmWl16dKluO222y6HQXEAmSDYW+zGgagcLcNEs31JncIgwzAiPQ2DO3fuhKmp6TUPg6H5J+CdXC0EvBAcSKUbysuvESRjxZBo4e0rhMZk7A1zx67gQFj5hsFoj5cQBC2xzPoAErOL259PS1M9So84wMHsRwz7eDCeffE7zBOCrt2RUOwxnopZo0bj2ykmMFmzCibzxuDHCcZYuScc8TlxyDD7DqPmGWKWoTDdZC4MFk3C91+bwvZICfKS7bF91lR89OZiOAjLoaM6WYGbYb5kEkb9uEBob7XQ3lhMmGAE412HkXAsEbm2Q/Havx7Gi5+MxY8G1KYJTNeaYeuBFKQe2QObuVMx+FXZyKHxO+C4cS6+nkzrR+19jRFCZ36BeRiiihMRuX0IfpqyFHMXmGD5Lz9h6vc/4HPrKKSV1AohxBl7Fk7D+y/Nwz6hLemaRXFkSncTrJk1GM88MRhfjJoBU3sfBGa1TS+LdoXrxikY+cVgPPHfbzBLWMc9hwuQKYQXaZuKXsUw2FRdimOh1rA2Ho6P3xqM194bAwOLLXBJOIJd80dgyqjJGPmLsE1WGsJk9nCMHL8Wm73ikZjgjwiTUfh09mosNKbtOxPzZk8T+gaWcBMCYmmiFYxHTsSwEeuwX1gOBaYUzxUwnvcTfvxpEUxWrRDaG4FR402xaX8ckrODEbHhczz85/vw2rBfMG1Z22tmtskS2wPzkR9lgdVjJmHosLWXRw49shZbVi7EiJ+FuquWw2TOJ/hqmDFW74tFVEYgDm7+BiPHrcTiJSZYMnEcJo6fhnFCoK+sb0JrhvC5Gz8J33yzBu5CW3TkjrZHdVYkIvctg8GUwXjwgcEYPnUeNrmHITyv7dYpJeG2sF0zGl9+MBgvvvEDFm6ygGNMjWrUWpUcBll2wHjdwuCRI0fEawVJ+pvK5MGPOhZ0+ihNo9BmYWEhDibTG2GwtLRUDKHScrWpaz2278phkGF0R9/CYGB2C+wj8rHZ0xbucV5C4KObylMgpOsD4+CXHi8EQB/YBNkhKCcKXklRwmNXrHXagalrNuLL6auFskqU1J9ofz508/LsfbMwa/THqkFY3sJ7gz/BbPscxMQehMfGmRgqlr8j+D0W7QnF4RJh3rIM1HguwA9ffdQ+3+ejfoZhQCuKqZNd5I/95maYPW0bAoTltB15K0Kc52YYDaX6b4vtLdgVjDChvbrCJCRZ/oDvP3+/vT3y7Xffx3cmgQgK9YC3hRl+nbIV/kJb4siXxYFC2WwMk9WfYOoB92RaVgWaGw9g09ihqunfY/gkC9m8QTiwdR1mTrTAQeGxNEBNRaIvfFcNa2+P/H7mGmyJoOktyHVZjMU/fqo2fcauRDF4SNtUNNcV29dtg5lVMHLl5b1gfWk2MnaMxbhvBrevw8ffjsYinwZkJbjDZvkkfC2W07YcCWOvJMRRWC2IQobdr/jgPXot2+YbOs0QG8KEoEbX+OV7YJfhGixZ7iAeLRWP5LXmI2z3Ciz8WmrvB6zYn4BYob2qtFCErv0eH75/uT3yvSFD8cOWeMRHOsJWCJ0GS/aJp5mKR+PyPYWyKar1a3OaVQSCxLBdhNI8Rxh9+iG+EKeNweTFexEqzVvgBbtVJli0qK1Mui1FacQ+2Bl8094eOXqpNWxjhfmqjiFr90+YOvzD9mmDP/sW89xKkUzvY1UbrU3VaM3aA5Pl27Dd6Wjn1yeyLKvXXtfTRDWlQWXeeecdcWXk5fSYyp988knQQDPyaSzbmRwGGUZ3ehoGr9dpoiFC4LCPKMDzX83Dwq3z4BHvKIS+VATnJgj/J2K9aySsfI/iQGo4dofYYvG2rRg2ZzZe/X4Cvp21TmyDlIdBlmVZlh1I9qkwSJ2E2tra9k6CJD2mcupUUGdCPo1lO5PDIMPojr6FwcNFp8RA6BJdgpnr7TBk6q94f/wEfPDjErzy3a948dtRePaLb/Cfj4YKjsM3v67BAktXISDGwzOxgsMgy7IsO+DtU2GQZXtbDoMMozv6Fgbl7gsvgPn+SKxzCcJ616MwcTiMtU4BWGPvC6M9fjC2DRFCYJIQHI8hIKtJbV4OgyzLsuxAlcMg26+lzumGDRvEU5BZlu1c+qzoQxisOXEBhY3nes26lpMdnhfLsizLDgQ5DLL9WrpfkpOTE8uyOkqfGaXPkjavRxjsbc6cOYNTp06xLMuy7IDz3LlzHAZZlmXZntkfwiDDMAzDDGQ4DLIsy7I9ksMgwzAMw+g3HAZZlmXZHslhkGEYhmH0Gw6DLMuybI/kMMgwDMMw+g2HQZZlWbZHchhkGIZhGP2mx2GwtLQUbm5uHAZZlmUHqPT9b2NjAzMzMw6DDMMwDKOH9DgM0g6fhiLnMMiyLDswpe//HTt2wMTEhMMgwzAMw+ghfGSQZVmW7ZF8ZJBhGIZh9Jvrcs1gamoqVq9e3WPNzc1RVVWl2DbLsix7baTvf75mkGEYhmH0l+sSBgMDA/HWW2/BwMAAxsbG3fLnn3/GJ598guLiYsW2yaNHj+LAgQOK03QxOzsbe/fuFTsyStOvprRMWjatg9J0bV7JOl/p872Sdd6+fbtWu9sey7LXVg6DDMMwDKPfXLcwOGTIELGT0F2OHDnSZRikkEntU+cjISEBMTExHaSOitK8pKurK+69917k5eUpTpfb2TKU7Gy5JL0Y7777rngdTmFhoWIdJa9knWlZtExatlJ9SVp3+XOR9PX1xV133YX169crTqfnoTQvLffpp5/u4H/+8x/ceOON4nNSWg+WZfuGHAYZhmEYRr/p12GQgtEDDzyAm2++uYN0vaPSvGR3glVny1Cys+WS1EmijtPnn3+OZcuWKdZR8krWmZZFy5Q6aNqkdZc/F8mbbroJN9xwgxjglKbT81Cal5ZL7wFNMzMzxefCYZBl+7YcBhmGYRhGv+nzYfDSpUtiR2Lbtm3YvXu32PHoLAzOmjVLDIOJiYli6KFQsWrVKoSGhopSwLjzzjvbg0ZQUBBeeeUVNR9//HEx4Lzwwgsdpklu3bpVnL+zZXS2XLm0zprt//3vf8e//vWvDuXScuVSWVfrTM9Tqk/bPSIiQlyvcePGia+FNE1pXUhahvw5SM+LnqNmmdzXX39dfD1owCF5GS2XXiN6HWn58vWTtqnStmJZtu/IYZBhGIZh9Js+HQbPnz+PyspKMYhMnz5dDIN0hKmzMEjtUvigv5VChWYZdV42bNjQ7scffyyeqigvUzIsLEznZWgrk6R1puUqLUcurZf03CQ3b94slinVJw0NDXHbbbcpLpekeeVhUGldpOXStqJQXl1d3V6fytauXYtffvlFPPXTw8NDXCdpOr1e0raS7O5rxLJs35TDIMMwDMPoN302DJ47d04MfDQwyfjx48XORlJSEg4fPqwYBqnTYWtri2effbZD0KBBZyjEkKamprj99tsVg4aPj484Lw2TLrUnzSdXPrBJZ8vQdbnycNSZ8nrS+s2cOVMso3XXrE/rScFs4sSJ4qA6Upm0TuQXX3whbjPpsXz7SSotl9qhU3ZpufReoLBOI71SPfn2k28r+TrTPSqpjMMgy+qvHAYZhmEYRr+5bmGQAl1JSYl45I86CfLOAP1NpxXa29vj+++/h5GRkRgqqFzpmkHqdFBHhEYo/dvf/tYeXOiJvffee3jmmWdw9913i9Pob5LqS/NLykOPfF7ywQcfFK+Je+KJJ9TmlYILTZfqUh2qq1TWW2FQWj9al02bNmHUqFGIj48Xt2VGRgaio6PFAVqoDtWV2qD60jqRmttFvv0k5cuVBzUqo2m0TFo2rQOti/z1oHUoKChQm5cGmqH1o/XULCNpJFhpQBppXpZl+54cBhmGYRhGv7luYfCDDz7A/v378euvv4qBgToLEvQ3lVEQpMBB9xSUOgtKYZBORbz//vuRlZWFTz/9tD24UIeDOiDU3qJFi8Rp9DcpdUbkykOPfF7S0dFRDC00uIl8XinM0HSprjQAilJZb4VBaf3of3rxnJ2dxUFhaH3oaB9dP0gDtEh1pDbob2mdSM3tIt9+kl2FQSqjZdM60LrIXw9ah6VLl6rN+8c//lFcP1pPzTKSQvOgQYPEMmlelmX7nhwGGYZhGEa/uW5hkK5Ly8nJEa9Jmzp1KrZs2YLa2lpR+pvK6NRKui0BnTL6+++/iyusFAbpKGJkZKTY4ZCCCw1I8vLLL7f7f//3f+KgLPIyS0tLcX5qi+aj6ZpBiKR6NOCJtAz5NHk46m6ZJC2b1k++bkpqWz+S2qUg9fzzz4vXWNJALTRAi1JdSQri0nahdZC2g+Yy5Nt08ODB8PLyErc5vX60LFomLZsGsaH1pP/pudJzls8r1aPTSenUX5pG25O2qzS4jFxp8Bn5urAs23fkMMgwDMMw+s11C4N0BIo6Cqmpqdi4caN4zRlda0bS31RG0y5evKha1Ta6urWEFD7oFERqQ5LmoYFQ5GV0/SENekLX9tFypYFSqGzKlCntvvjii+Ipn/Iyeu60PCnkUfvStNGjR+Mvf/mLYpm2MEh15eumpNIAMubm5mL7ND8dTSPly5UrrXN5eTnmzZsn3sSf6lK79PxpO9Dz1FyGfJvSzeBpABlpuXPmzFFcV6keLZO2M80rH8yG2qN25cvRVFqu0jSWZa+/HAYZhmEYRr/pcRiMjY0VR/fsaRikjj51EqgTkJycLF4fNnz4cFH6m8rkHQQJXcOgvIwGOaHTFWlwlD179ogdFGkaDawyY8YMcRAUaV4qGzt2bLvPPfeceNqjvIxOiaT5pTD4/vvvt08bNmwYbrnlFsUybWFQl9BDgY2WS6dfWllZidLRPaX105Sm0zJoXgpykyZNEp8nldHy6fnTdpDqyZertH60LtQu/U/bk7YrtS2vo6n86Ci1R6+H9DzkSq+RrtuFZdnrI33/0/cJ/dDDYZBhGIZh9I/rdmSQOvrUSSCoI0ADxNBpoaQ0WIwS3QmD1AGJi4sTj8pJA6XQoCYHDx4UOyqdzSuXymiaZjmpdPqnrmXy9aMOlVTeldTp+u9//ytKf3e2fpLSc6P6FFLpRadyzXnpbwqKUVFR7dI2k7aLtM7y7dfZc1OqR0cRaBn0ekjPQ660ftI6S/OzLNu35CODDMMwDKPf9IkwSNA1gXSDeVK6PlCJ7oRBCh90pIuOpkkDpVDQpJu50yAnnc0rVzMwydU1+Gkrk9avOy8AdaSoY0XS352tn6T03Kg+dcikcs156e8//OEP4iAukjfccEP7dpHWWb79OntuSvVoYBhaBr0e0vOQK62ftM7S/CzL9i05DDIMwzCMftNnwqCu6BoGaRk0Yqk02IkUeqhTQm3QgDDSADKa88rLSGlezXJSWxDqaVlPpPXTHBxHU22Dz2g+N/qbBnc5dOhQu2+88Ub7vL3xfNesWdM+gIw0TUltrwfLsn1DDoMMwzAMo99ctzD49ttvi/cPXLt2bbecNWuWTmGQBiyh21PQICZUrhl6pIFNpMekUvig0zdpABml4CIffIaWJ5XTMmnZVEbLmTx5sngPPvkAMtrm7Ym0zjQIDN3jT5tKg89I83a1XeRlUqCj0WDpecmfm1KZPAzKtwu1R+1K0yRpu0ht0AA3muvCsmzfkcMgwzAMw+g31yUM0uAwy5cv77EUoOhm9UptU6dEGtxFLpXRNM1yuUrzUhkdRVSal66nmzlzpjj4iuY0SWqP5pekeahcl3l1tafPjdRlXrm0vrTe8ufUmdLz1VWq39N5WZa9tnIYZBiGYRj95rqEQZZlWVb/5TDIMAzDMPoNh0GWZVm2R3IYZBiGYRj9hsMgy7Is2yM5DDIMwzCMfsNhkGVZlu2RHAYZhmEYRr/hMMiyLMv2SA6DDMMwDKPf9DgM0r376IbiHAZZlmUHpvT9b2NjI47wzGGQYRiGYfSPHodB2uE7OTlxGGRZlh2g0vc/3TvUxMSEwyDDMAzD6CF8ZJDtt0ZGRmLr1q0sy+oofWaUPkva5CODDMMwDKPf8DWDbL+VOqeWlpaIi4tjWbYL6bNCnxmlz5I26fufrxlkGIZhGP2FwyDbb6XOqb29veqtzjBMZ9BnhcMgwzAMwwwsOAyy/VYOgwyjOxwGGYZhGGbgwWGQ7bdyGGQY3eEwyDAMwzADDw6DOmhhYYEZM2YoTutMmofmVZrGXn05DDKM7nAYZBiGYZiBR78MgzTK6cSJE3Vy48aNim3IDQ8Px8qVKzFnzhzQ81aqo+SQIUNgYGCgOI29+nYIg00JiPA7iL0uCagVHl5sK2UYRoDDIMMwDMMMPPplGKQAdv/99+PHH39s9/nnn1cso8CmOX9mZqZ4RE/u1KlTcfvtt2PVqlVq5dQRqq6uVpufHlP5f//7X3z22Wdq9SW9vLzU5mF73w5hsMwZ24yNMX6GM/KEh5e7nwLnW/FbTTIO+iajoFr4W1XMMAMFDoMMwzAMM/Dot2FQM+TpWka6urripptuwtNPPy0GRm0+8sgjuPfee5GXl9c+b3l5OXx9ffHuu+8qzkPec889istle9duhcHTpWhOtcbUSdbwSxL+VhUzzECBwyDDMAzDDDw4DGoJgxTycnNzxU6LNl1cXDqEQZr3vvvu63Rebctle9duhUEVv/+u+oNhBhgcBhmGYRhm4NFvwyCd0vm///2vXQptSmWdhUF5yFNSs96WLVswduxYHDhwAO+99x4CAgI6zDN9+nRx/VJSUi6X53vCzngOJk8whnVmK6qb1Odhe6ZyGJyN914fil++exlvvvYyXn75S0wzc0dQMR0ZtMG0KTY4SEcGm5OQ5L4M3738Ml4TfJn8eBqmrfNCjjDNbtrHWLXnCEKLqeEGHK8/AJMhE7DZXZiPDysyegiHQYZhGIYZePQ4DNJMdGSsr4bBZ555Bps3b26XQp9SWW+GwYiICOzfv1+8ZtDa2hqzZ88W60RHR7cPWEMD0VA9tbYyd2HD5G/w3tuTsTqxFZWNsmlsj1UMg/PH473XRmK+xU5Y7dwJ08lfYtT42fhlkyMyjhrj3beNsS/cH4HuxjAePQxfzdiJLVt3YqfpZIwaPhXDZuxD5vFCJJt8guGLbWERWg205qA2bDHeGLwY1v45qOILDhk9pKdhcCd9jkxNOQwyDMMwjB7Sb8OgZsjTtYykACcNFkNH+7T5008/dRoapbBJ7UyYMEE0KiqqY92SMPjt2gyTNbvgXSB0kPjIYK+oHAan4puhq+BRC5y+CDQdXoVl48fj02ELcFAIg29SGPSzxEbjqRj52RxYpQsfkvOqeaVTTM8fx4V0E0yZuBrG1kdRXHgECaYf4pUlh3Aop7VtWQyjZ3AYZBiGYZiBR789TfTNN98Uj8BJUhBTKtMWBmkAGTqS+MILL2hV2wAyUvu0vEGDBnVYriQdMaROknzZbO+pGAY1rxmksunTMfT9SdgjhMHXKQzuWoply5ZjpGa99nnPCmVHYDXqZxgbW8M61ANW3z6FGd41SK+nygyjf/Q0DPJpogzDMAyjv/TbMEghTBe1hcGenCYqlSktR0ldlsH23B6HwTWTxGs739caBtvKjpp9JYTB4Ri+eAvG/99U7KtqRhXVZRg9hMMgwzAMwww8+MjgFYRBOgooHd2j8EBHC8eMGQNPT0/cdddd4qlT8uXJpWnty8jfj71GszFpghGsM3gAmd5SlzBY47sY84XX7uvZFigQwuB74mmiFti4bDrGDFmM3aXAKaqoMO/JVCtYzPoIL732LT5ZdASFLWdBZ5QyjD7CYZBhGIZhBh79NgxqhjxdyygIzpo1CzY2Nh1uJt+ZFADpOkL6nwIeBT1qS6kuqRY4eQCZq6JiGJw/Cq89Mxgjpk7FFMHR30/A9DW2cD4aiTohDL4vDiATiTghEFpO/Bqvj5iKCVOmYurowXjr/VH4Un608GQ8vNdMxfghozErpBUtZy5RKcPoJRwGGYZhGGbgwWFQh7LuKoXBKVOmqI1eKpemtYfBkjAc3L0Fpmt28wAyvWiHMNiUgAjnTVgybRqmSS7ZDeeIfDSdqcWJQj9sWu+H2Hzh7+okpHutv1zvm9fw0vuj8fFiX9QKTV2k9mrC4LxmMaZOXt0+IA3D6CscBhmGYRhm4NHvwiDdv48CHZ22KS+no3ZURp0SGtEzPDy8w2mi2ubtrlIYfPTRR9XuayiXprWHQYU22Cu3QxjsBr81V6EiNxGJiSp3L8FiYzP8ZJemqiF8eAKXw3j2bHxtGIRS4TFnQUaf4TDIMAzDMAOPfhcGP/vsMzHQKU0jKXzdd999uOGGG0SpvjStq3l1VVpGV6eJUh0Og1fPKwmD2e7GWPx223ukzbcxwtgdUarpRNQ6GkDGGOvkhQyjp3AYZBiGYZiBR78Lg6mpqWJnRGkaSZ2SmJgYREZGilJ9aVpX8+qqtAwaYEZpOknTqA7VVZrOXrlXEgbPNFejMj8ZycmSQge3uhknVdOJk7VF4nWltfJChtFTOAwyDMMwzMCjX14zyLLklYRBhhlocBhkGIZhmIEHh0G238phkGF0h8MgwzAMwww8ehwGS0tL4ebmxmGQ7bNS55RuEUKdUpZlO5c+Kz0JgzSfmZkZh0GGYRiG0UN6HAYtLCwwatQoDoNsn5U6p8uWLWNZVkd7EgYpCNLAWxwGGYZhGEb/6HEYNDIywpgxYzgMsn3WqqoqsWPKsqxu0mdG6bOkTfr+X79+PZYsWcJhkGEYhmH0EL5mkGVZlu2R9P3P1wwyDMMwjP7CYZBlWZbtkRwGGYZhGEa/4TDIsizL9kgOgwzDMAyj33AYZPut1OFkWbZ7Kn2WtMlhkGEYhmH0Gw6DbL81IiICW7ZsYVlWR+kzo/RZ0iaHQYZhGIbRbzgMsv1W6pxaWloiMTGRZdkupM8KfWaUPkva5DDIMAzDMPoNh0G230qdU3t7e9VbnWGYzqDPCodBhmEYhhlYcBhk+60cBhlGdzgMMgzDMMzAg8Mg22/lMMgwusNhkGEYhmEGHhwG2X4rh0GG0R0OgwzDMAwz8OAwyPZbOQwyjO5wGGQYhmGYgceACYOHDx8W11dp2tWSlrdp0yZFr/W6DEQ5DDKM7nAYZBiGYZiBR78Lg0lJSTh06FAHx48fjzfeeENx2pEjR8TOilJ7uqq03HHjxuHll1/u4P/93/9hyJAhiu2wvSeHQYbRHQ6DDMMwDDPw6HdhkELWH/7wB9x4443t3nDDDR3KJP/4xz/i3nvvRV5enmJ7uvrFF1+0tzdo0CDxfzc3N3HDUgdIXtfAwIDD4DVQexj8Xfh3CReFDih1Qi9cvIiLl4QyNX4Xqgjl7XUu4dLvHetcEuqI01V1OlYR5hPab6sj/N9hOQzTN+AwyDAMwzADj34ZBidNmoSoqKh233rrrQ5lktSJ6Y0wSJ0gqb277roLPj4+YmfI3Nwc06ZNU6vLYfDaqDUMnipFU8ImTH7/Dbzx/PN4fugC/GqbopqooikRia4G+FqY/iLV+XELdoQUqSaqqA6Aq8lkfErTX30Hz//qgYjsetVEgQungBJ7mE7+Gu9TnY9G4aNVkag/flZVgWH6DhwGGYZhGGbg0e/CIIUwOu1Ts4wCmJmZGWi9Z8yYgaNHj4rTsrKysGfPHrHTIp+np7q6uqqFS6Xgx2Hw2qgcBk+gJtMLdhP/i0duvQk3DRqEQX9/BI9/OQ/rgmtw4sxFoU4j8vw3wPiLR3G7MP0PVOeeZ/HuL1vhENcoTKc6NYjbOQ0TXr0Xf6Xpf/wTBj3wJn4w8cPhPOrEnsGZ1gwEL/sQHzx8O/5Mdf5yF/72/DDMsc9CXs0ZoQ7D9B04DDIMwzDMwKNfDiAjDRZTXV2N7du3IyMjQ3w8Z84cMRD+/PPPiImJ6fVBZag9Y2NjzJs3D+Xl5WKZTmGwMhkx/p5wdvLHkdJWNDRfrsv2XOUwWIbMEDNMvnsQbv2jENAopAn++ZE38YJhPGpbzwl1shGwcSK+uuPydPJvr03EeJtsYTrViYfN+Dfx2t/U69zxlRk2BpQJ05vQWusNwxfuwiN/vjz9j7fehbsneyMks0mowzB9Bw6DDMMwDDPw6JdhUApbdHSOjtLR0bqcnBxs3bpVLC8uLkZiYqJYjwZ5iYyMFDsrSm11R2rv9ddfR2hoqGhpaWmHMpIGs6Gy9uVm7sKGyd/gvbcnY3ViKyobldtnu6dyGMxHqr8hhgsB7S83yELa/a/i0dmhqG6hI3YJ8F4zGoP/dHk6edPzo/Hd5gRhOtUJxebvXsXzN6nX+dNgQ6zxzhem16Kleh9mP/oP3C8LnTf85R/48/B98E+tFeowTN+BwyDDMAzDDDz6XRikzgYFMBrQhcLgAw88AGdnZyxatAiffvqp2Ckh6W+qp3laZ0+l5dIyaLAaGkiGOv7U9tKlS3HTTTd1UG3gmqw92DR1GAa/NxUmSRwGe0vlMFiPgojtWPj0H3CbFORuEP5+cjA+2pyP+hPUKS1D5I6ZGPPwH3CDKsRRnXsHz8QsVzrqR3Xy4frrYAy+5wZZnT/ikbHbsSOSrhs8gRP14dj84b148rYb2qYPugE33X4fnl4YjogC7ugyfQsOgwzDMAwz8Oh3YXDq1KliyKNTQ6nzER8fj1GjRuHuu+/G3/72NzzzzDOi9HdvhkFaLi2DBqs5cOCAOIgMtV1QUIDo6OgOrl+//vJyG8pwLDcTaWm5KKprRXOL8jLY7qkcBi/gbF0SshzG47V/3IpbKaQ99gk+WLwfxfVnVaN9nsepAh94Gn2Gh4XpN1Kd/03EzB2RqGw5L0ynOmfRkmQF0zEv4z6a/qfbMOg9Q+wMzEXjKerYXsKls3WoD1uM8a89jH9QnX8+jbtHbMfRvEacPHtJqMMwfQcOgwzDMAwz8Oi3A8jQADFjxowRXb16NbZt29ZBqpednQ1bW1ux06LUnq7SculopObpqUp1yd4Koax2lcOgwPlWnKlOQKCzAxyE197WKxyhGRqnbZ6pQU1uBDyF6XZUxz8RqSUtqokqThUjNyYQ7jTd3gm2oXkobzytmihwSQiOrVmIDfSEM9Vx9YVrdDlOn6UBaBimb8FhkGEYhmEGHv3ymkGSBoj56aefROnvsLAw8b5/SnV7SzrSKA+DEydOxIYNGzpI66IWBiuTEOO/H06OPIBMb6o1DDIM0wEOgwzDMAwz8OiXYZCO9tEAMfIyKajJy5TqXYm0DBoYhoLenXfeiccffxyvvPJKB2kgG7UwyAPIXBU5DDKM7nAYZBiGYZiBR4/D4PDhw8VTMPtiGFQKfrqWXYnU3h/+8AdxgBgaSEbn00Sz9sB82nf48P1pMOUBZHpNDoMMozs9DYPDV+/C5IXTOQwyDMMwjB7CYbCXwyANIOPr69s+gIxSPVItDIoDyGQhPS0XxTyATK/JYZBhdKenYfBrIyuMnTeFwyDDMAzD6CH98jRRCmX/+te/MHr06HafffZZxbLeDIM0aA2NJEodoL1794qnoWrWWbt2rbjsmTNninWormYdtnfkMMgwutPTMGhmYQYDYwMOgwzDMAyjh/TLMOjh4SHe6kEXt2zZotjG1ZKWdz2WOxDlMMgwusNhkGEYhmEGHv0yDLIsSZ1Ta2tr0HuVZdnOpc8Kh0GGYRiGGVhwGGT7rYGBgTA0NGRZVkfpM6P0WdImh0GGYRiG0W84DLL91urqavHNzbKsbtJnRumzpE0OgwzDMAyj33AYZFmWZXskh0GGYRiG0W84DLIsy7I9ksMgwzAMw+g3HAZZlmXZHslhkGEYhmH0Gw6DLMuybI/kMMgwDMMw+g2HQZZlWbZHchhkGIZhGP2GwyDLsizbIzkMMgzDMIx+w2GQ7bfSezQzM5NlWR2lz4zSZ0mbHAYZhmEYRr/hMMj2W1NSUnDgwAEEBwezLNuF9Fmhz4zSZ0mbHAYZhmEYRr/hMMj2W6ljGxYWJh7tYFm2c+mzwmGQYRiGYQYWHAbZfiuHQZbVXQ6DDMMwDDPw4DDI9ls5DLKs7nIYZBiGYZiBB4dBtt/KYZBldZfDIMMwDMMMPAZ0GMzKykJ8fLzitJ5aUlIidqqoA6Q0nb12chhkWd3lMMgwDMMwA48BFQapI1JbW9veETEwMMCQIUPap1OnhTos0mNJKqNOjZJSe9K8rq6uuPfee5GXl9ehHfbaymGQZXWXwyDDMAzDDDwGVBg8ePAg3n77bfEJ02PNMDhlyhRs3Lix/bEklT3xxBOKSu1J83IY7DtyGGRZ3eUwyDAMwzADj+sSBuPj87HU0AOJFbWoFcsqkB8fCAeDhXDwt4XRolmY8sMP+EF0rKAJbI+kI6ciHvE+GzHnxymYs0v4O7+2rc3afFQkOsBwqQMChbYrZMuSm5OTA0tLS4wfPx5HjhxpD4OlpaWYNm0aTExMEBUV1WE+KpsxYwb+/ve/Y926dbC2tsaXX36J5557Dvb29mKHh9qh9jgM9h0Vw2B2GMKc1mDasGH4XnCY4PhFm2DuGorsMEssGj8Ko1Tlw4ZNwJgJG+CSkYvMcFtYr1yJWYa2CBDaKRLbC8cB4b2wRa1MwTRvOFnbwNTcG4nC4xK16ZnIzXDBhgljMEFa7oRZmLDOGxmRu2FuagNrpzCkiXVLBBPhbW4KG/NV2GCl/jyGDZvetn4lBShK3AfzRdMwnZ6bd9rl5XW6LuxAlsMgwzAMwww8rksYPOwXie/enIJdiaXIbxDKahIQ6bIOY175Blsd5uHzD4bgvXe+wdhffsEvP03FL58Pw49Gu7Db2xouW8bjqXufxWtfLYbVwVRk1wjzVyahKHAx3nptMXb4JaFQY3nOzs5Yu3at6JIlS3DbbbeJgfDDDz/EU089pVYm1aPQWFVV1d6GZsjTPKrIYbDvqRQGI5ysYTJpBD7/bhImTJyESZO+wJcTF2H6cmukuM/AG4++jo8//x6jJwnTRo3BxM+GY8RaZ3h47MC6mWPw5ZdjMc8/A1lFJcgOXw9z4b0zY54zQoW2i2XLUTNmK1bPmYvvxm9FuPBYrV5uBDL85mP011MwZhStz2h8P2Ik3h3yCxy8NmHqd1Mwd5k1fLKFukLIK8uwx/JREzB36ljMXTIeT9/3Kr4aPQ7jaH2H/YDxo37BRCt3RAmfh1EfvYHnXvgKYxZbwz9DCKslXawLq/dmZmYiNzdXcRpJ1zSnpqaisLCwwzQOgwzDMAwz8LguYTA92A+mn7yJn10yEXOsCa253vDbvgivDzFDePASjP5hMRZv8EMm1a8vR2vwXAz/Yjp+njcPW3bMwnNPD8dPH7yCCRvd4JRc3WUYnDNnDt544w3Rl156CTfffDOefPJJPPDAA7jjjjvUyqR6dOSvuLgYcXFxCAwMhLGxMe688044OjqKj8eMGYPXXntN7EBRZ0cxDNYVIS8lATHRKcgRQmtTi/p6sVdXpTC4fY4ZRr01BWtiy5BzjMqCxdfMwnQHUvbPxRuvzIW5WzhSqH5aMJJsxuOJZ6ZhlXMYPF1XYfW0T/HupN0IPBoJp5WTYbR6IzYEX25f0c4CWFo4sl2XYqlrNsLTqCwBYc4bMP25d2Hg5w/jScMxd64RTEOEzntRNsoCF2D8uGVYuGQprMzn4pU3lmN/Sg5yqK2ovXBYMQGPPvsL7D3m4NvvxuGTlz7AxHE/YopLOjILSjgM9mMpgPn4+IjfT9nZwntFYzp90ScmJopnMyQkJIjBUD6dwyDDMAzDDDx6HAaHDx8uBqKehMHKpIMIMngDry4KgF9iBZpjbOFrOQ/vGEegKNwIk+VhsKUGzY2OMBzyMxZPmQLDHYvx2ssLELh9NN7/xQQGttFoLOs8DEpSRyQtLQ0PP/wwPDw82o/uUeflkUceEYMedVrk83zzzTe45ZZb8Kc//Qk33HAD/vznP4uPb7rpJvzxj38U56P5FcNg5i5smPwN3nt7MlYnCs+7UX192KurUhjcMc8Kkz6cjx15+UgvLMaxktK2aTlCANQIg6Wl8UiL2YAf7v0OxrYHcagsDP57F2HYnc9i+qppeOfz+Zhv6oFYWfuK6hTASnGsqAAF+QHwtjHCiId+hEViBnytfsScuXMwzjIaZfnpOLZrJMYvt8aaHTvgphEGS0uC4bvLEN/e9S02u/6KId/NxZwfJ2LNyim4f/RORKfmoySaw2B/lE51pyOC9KPV0qVL4enpqRb2aDqNnExnPEycOBEHDhzocHSwp2Fw7qpfMHneWA6DDMMwDKOH9DgMfv/99xg9enSPwmBzzmFkbP0OD4zbA/cjBUhxXoHNs7/BaNtjKDmyWi0MNlYfQ/q2r/Dp+xMwbcECWFIYfHMlAtOSYbN8GAxWmMDSX7cw6OfnJx7NCw4ORmVlZXsYpE5KcnKyeI3ihg0b1OahX9ipE7Vp0ybcddddYoeHHv/000945513xPlofg6DfU+lMOi/ZRF+fu1O3Pf0//DYuG1wDU1pm6YQBnOjveC95B08+PRUrHIJQ2JZIdJC7GAz8gk88tD/8OUSO9gdyes6UHUZBo8JRmHv/O/w3cvv4sNhS2AZmYhkoVOc77pADINDlgud98xEuP70KCYa7cFWJ+cOYTDddyM2/PQpHnhhJhw95mAohUHDPXDzsMKy7/+LqdbJCPXjMNhfpfBHR/wsLCywaNEi7N+/vz3wHT16VCyna5/pyCFdP00BUT5/T8Oggekc/LJwEodBhmEYhtFDrstpoq01qSiOXIlPnp+NrT4B2Ld1DUx+mgnzjEpUxQlh8JPBeO3F9/HliBEY/v0P+OyT0Zi93hE+gbZwozD41moEFlUizd8QaxYvxtSF28RrpN7oJAw6ODiIHSFpwBcqi46OFkcYlerQ3xTo1qxZ015GKs0rBUmpDs1L7amFweoMJB0OgI93GOIrhGDbfLlN9uqrFAYzY4IR4LAFW8w3YovhdEwZ/wOG/rISyy1tkeI2HW889ALefOdjfD50KL76chg++3wC5ll5Iyg5GwXC/MUxPji87C3887Yn8c1qN7ilXG5bq12GQTqCk41oX0c47jDBasNFmDFuIawOZSMx1gZmc+bghxFrsD81GKs/fh/LbfbDK0JY9toxeOquZ/H+51/hK2F9P/9MCJPjFmDlvgNICDLAaAqDwjoejvdD4MahGDzcArttDLGYw2C/lUIYDY61fft2MRDSEUL6bqIgSEcN6TEdQdQMgmRPw+CuXbvEgbU4DDIMwzCM/nF9wmBrOSoKA2D8+hcwtTHB3NUbsHCONeIaK9GQKIRBIWS99+43GDd9OqbPnIvpK5wRlFKEykI/+MnCYGVpJLwtjbHkp/FYK5S/+LL2MEidIDpFSl4WGhoqDi4jL9OsR9Mp+GnOq609GoSGB5DpGyqFwXaL81AWuh3rDEdh8KdjMXT4Avi4z8CrqgFkxkyejMnTF2GWEKYicwpRKM6XhuSAPdg27DN8+dHreP+XDTDzjEO2Ztuadus6vSQcdjHFjOefxsQ9SQhJj4LzyiVYMPQHGPtux/CP5mKn12EkpQhh0Gw8nrnvNXw9ZjzG0/rOWo3VO/2RUpyDkvDlGK8KgzGFKcg+bIMFw0fCaOU0jJzAYbA/S0GMjgTSrW5WrFgBQ0NDcaRkJycn8UihUhAkOQwyDMMwzMDjOoXBVtSXFyNk3kdYOP9rfDJrLaabx6BVCIOtFAbl1wzK1QyDQlnpERu4r/4CXwwfh8f+uwBWCmEwNjYWAQEBHZQGgVGadujQIbETM3fuXGzbtk2tPZJG7aN25WVU780338RXX30ldoZa6wqRlxKP6CgeQOZ6qBQGE1LzEBmXdbms0BkWQlAb/944bN0/Fy/KB5DRsCjTC57bFuP7F2dh765p+OSrMRi/dBf8sjrWVbOTMHgsPwc5cRGIyylGvjigTR6ivbbC6MOHMGpbIgKTyxC11wybJ7+FYXPG46Uf7eARnIYyCoOaA8hICmGwTB4GaTl56YjdNhSzp36Dl9+djC85DPZr6fuH3v9GRkZYuHCh+KOW0giicjkMMgzDMMzA47qFwdbaUrR6TMYX//sXnhm2FKtChLIehMHW1gQccZ+Pr/9yO2759wxsUAiDNAjMX/7yFzVp8BcaBEYaGIYGhZFPf/TRR8VODc1PHZnq6mo158+fj48//rhDOXVu2pfN1wxeV5XCoMm2IIxf4CSeKid6eBOM58zDiB8WwFMIg69oC4MlRUhwXoVtyybgR7tiZBREYPvktzFh/Bwsci3CMc36csUwOBvfjt6IQGGZWeKyC1BYdAxZEQdxcMkoLNgfj8AkKveD5855+Oa+9zHXPRWROcL8YTthO+N13Pr3/8On6xPgnyiUdTMMlpUVCNrBcMgLeOruN/E6h8F+rzSoDF333FUQJDkMMgzDMMzA4/qFwZYatFbtweKPxmLGPBt40/0CexQG61Gb5odIw89w9//mKYZBGiyBBlaQS4O/0CAw5ubm+Oc//ykeDZRPp04RdV5ofhpU5vHHH1eTbjNx6623diifNGnS5WVzGLyuKoVBB9PlGPrUv/DYY4+1+dCz+GiCMdZ5+CFeCIOvawuD/mYwmj4Fn05eD++cUhSWFiE7YA1WjJ+Ib743g6tQp+1UUgUpDE74AI/dfg8elJb72DeYtMoefvEHEbvmU/znqSfw4CNU/gCef+8LjDSLxZGMY233BiwMgM+2Bfj07m+xOjwdscVCWbfDIJ0amIP03TPx07CRHAYHiDSoDKnt1FC5HAYZhmEYZuBx/cJga5NgDuIORiA6OgtFVNYshK+KeBwOiUZ0UgGqNeepK0BBWjS8fOJRVNeIRqm8pgQ1qcFw8DyKpIIK1MnnkRkZGQm6JQZpamoqDvhCQdHKygpjx44Vy2mwGM35qB51eOTSqaDPP/98h3L5gDRtA8gE4oDPYR5A5jqoFAaTI4LhaWMhDqjRpg2cfIX3YGY2ClKC4eQYjKOqwWLk85WlHEKwr69QN1q8RrCUyvKiESGUubsdQrzwWOvRQbGeE2zal0k6Yn9wDFLyhc5zpBust1u1T7Pe54YD8WUoEk8bJbOQHn8YXtYHEJVfhHwqK0hG8tFgODoJHfiCYvVQV1qMsuww+HoFIzgiGXnyaUrPg2UFOQwyDMMwzMDjOobBaycNnEADKNBACjQqKEk3k5eml5eXi4PEUDn9T3W3bNmCqqqq9nk1/fDDD8Wb1CtNk+aVrwN77VUKg1fHXBTkCkFy7WqsFd5j9D5Tdx22OwficLbSvCzbN+QwyDAMwzADjwERBmkQmLfeekv8X2m6XBoEhupKg8BI83bH9gFkFNpnr53XLgymITttD5Z99iGGvPaaOCiRul9g0gobOCcrzcuyfUMOgwzDMAwz8BgQYZAdmF67MMiy+i+HQYZhGIYZeHAYZPutHAZZVnc5DDIMwzDMwIPDINtv5TDIsrrLYZBhGIZhBh49DoN0w/Xdu3dzGGT7rNSx1bxlCMuyytJnpSdhkG7PQwMlcRhkGIZhGP2Djwyy/Va64fbhw4dZltVR+swofZa0yUcGGYZhGEa/4TDIsizL9kgOgwzDMAyj33AYZFmWZXskh0GGYRiG0W84DLIsy7I9ksMgwzAMw+g3HAZZlmXZHslhkGEYhmH0Gw6DLMuybI/kMMgwDMMw+g2HQZZlWbZHchhkGIZhGP2GwyDLsizbIzkMMgzDMIx+c13CYGJiIhYsWNBjjY2NxY6GUtssy7LstZHDIMMwDMPoN9clDAYGBuLtt9/G2rVrsWXLlm5JYfCTTz5BcXGxYttyq6qqsGnTJqSmpipO12d78tyCg4Ph4ODQZVln9tY21XW5mvXobyqT12FZ9vrIYZBhGIZh9Jseh8HS0lK4ubn1OAwOGTJE7CR0lyNHjugcBqlD8s0332Dz5s1iJ0WpDknrQQHDz89PJ6ldpXaulbR8FxcXfPbZZzo/N5rHwMBA3O7StOjoaLFs/vz5avNoU77ckJAQxTqSmtuUliWfrrku2tSsR39TmbwOy7LXR/r+t7GxgZmZGYdBhmEYhtFDehwGaYfv5OTU58IgdT6oEyL3o48+wty5czuUU0eE5snLy8O9996LW265BX/7299E//rXv+KGG25QLHN1dUVrSxOa6mtQpdZmJaqqa1Hf3IoWaZ0U6lUKdWob5Bu8WahTi5qqKmFaPZqEjlL7/BrSOtvb2+Pf//632OkaOnSoGI7oeSvVl54brbMUrKgjVllZ2eV2kepJ5Xv37sU999yDpKQktfqS1NmTlkvrRusobTtaT2kaqUsYpOdE9eTzKoVBqietM8uy1076/t+xYwdMTEw4DDIMwzCMHtLvjgxOmDABjz32mJp/+ctfcMcdd3Qop1ObaB4pMNFRtuTkZNGgoCD885//VCwTw2BJGMJspuMDoZ3/tLf5MgaPMIBVeiuqGlXrpFDvZaGOgWuebL3zhDoGmP7xYGGaFQ6VVKG6fZq6tM4jRowQO13UuaJ1p3BEz1upvlIYLCwsxOuvv97ldpHqSeXUzo033oiHHnpIrb6kr69v+3Jp3WgdpW1H6yFNI3UJg/ScqJ58XqUwSPWkdWZZ9trJRwYZhmEYRr+5btcMXq0wSO3SqaF79uzp1Oeff749VMgDk9ROl2VFB3HQaib+9+QPWLplG7ZTu1sMsWrOL/h2hCW8hUBX2pqIUBtjLB35Iyab7sGOXbTsJZizYgMWrT/S3m7rMW/YGE3Be0++gXffHI71UceQVauaJnPVqlXiOgcEBKiVx8bGitdfTpo0CRTS5dPk6ywFMKls1qxZ4rag///+97+L1wIqbRepnjZpPppfvq06k57HU089hfvuuw/Dhg1rd9++fWr1lIKfvIyeKz1neu60DeT1WJa9+tL3P18zyDAMwzD6S78Mg5oBQkl5PSn0jBkzRgwq5MKFC8XTG5XK2sPgTgO8/vYaBBVVopLarQpDsPUSfHzvBGzPK0VeaxDsDH7FxMFzsa2oFdXNtOwMREVFwc8vo31dKkJWYbVQ771Pf8Lcj5/GD9bxiMyvF6fRQC3S8mnwHG9vb7GMAhgN5iK1ER8fjzlz5ogjrVJdaZAV+XP74IMP8MQTT3R4bvQ/PaZymq65XboKeZr15OssV1rnbdu24bXXXsMjjzwiBk2S/paWKw1SI18XSel1o2XQc6XnTM9dXodl2Wsjh0GGYRiG0W/6ZRgcNWqUeMpiZ7766qsdQs8zzzyDd999V5ROj7z55psVy7SGwerDCNltiE8f/QV788tQ2BoD91UGmP7RjzA8GID90bkormgLeW1Sh6gGMeYThXUxxERjazhNeRzPTnaAW8wxNAh1aKAWafnSoC30/+effw5nZ2e17UAdsG+//VasS9fxUFlXz41O+bzzzjvbp9HfmtvF0NBQcRtK2tnZ4R//+Ed7GJSvM7VHy6C/ad1oHakOLYNeK/qblEIePR96XvT85Osir0evL52+K2+PZdlrL4dBhmEYhtFv+mUY/NOf/oTbbrutS42MjMR5lI6AdVlGYXDHIrz2xnJ4puYgt7wc5WE22Ld0Ah76dD0CiytRJcyT4GSExR8Ky/vn/bjt602wD0xGeWUNquuahDYb0NocB+vJo2GwxBx7wyORt3MkHnhpDtYfSEBBS9tyqeNEHatyWoZKulcjDeZia2vbXkZ1pE6W4jprlNG8NIAMDSQjtUF/a4ZBurZQaftJ0lHF9oF1VMuQ1vnrr79u385ytYXB/fv34/HHHxc7lFKZfD7p9aXTSuXlLMteezkMMgzDMIx+0y/D4LRp05CSktKlJSUl4jxdBj+lMgqDm0bhiT/fiQceehgPP/ooHn32c3wxbSt8c8tQ2dSMZmGe+qoSHMsRlhd3BCm7pmHERy/h0Y+mYsKWCLQ2VqE13RwzR8+HwTovJNVloyRlA0bc/w7mWAQipKRtuTSQC51W+SgtQ+WDDz6IP/7xj+L6SGVUh+pK69thnTXKSBpAhsKe1Ab9rRkG6f6OSttPkk5JbR9YR7UMaZ1pcAlpO8vVFgarq6uRkZEhdhylMvl80utL6yYvZ9n/b+9MoKUozrc/R6PikrgkURQVTUxcYzCJRsXPJRpFEGRRY/xLIupRIqsiERSugCAEcAEVEC/IIgKSyKIgcAUuyC6bgIAI3CuLQmI8GkOISfT95qmemlvdUzPTM9yZ7pl53nN+Z6Zrr663e+qZ7q4m+YdikEaj0Wi0wraiFINYnMRcmCQZesESLXouu+yyeBzepVenTh1rWFwMxhaQeWzIMBk2+H6588bb5IaWA+XNaJn7jDYp/v5X+XzLAnlrah95oPUD0vr/npP5H++QDaNulcaXXCTnNvh/0qjljXLTjT+TM+ucIL+8/0UZuXCXyrt37171fj9cyUtGp06dVB+8Isnbt969e8fLa9CggVpsx1uWXoxF5zVFng1bOjMM+xn1mnmSiUEzjRmmF4vBojPedISQYKAYpNFoNBqtsK0oxWAkElELkkAgJcNcsEQLl6ZNm8bj77nnHjn66KOtYXExaD4z+NE7MndoL/njHQ/I3U+9Lgv27JU9u1ao9k59e1NNG3dNkeHRetvc2l+mV6+QCfecJ02a3iKN74y1rd390qnpBdKgeU95dOwK2aXzpQBX5nr06KHABMyMM/uGK3XYP3qBllQL0ph577jjDiXmkoFy4gvrRPOhPNwaqhd3QR1IY9aBfY+26LpM4ecNM8szx40QEiwUgzQajUajFbYVjRhEWXgPYJs2bdSCJabQsGGKj3RXtqxhtgVk1s+U2QMekIYXtpBO46bJzIUvSf/+veWu+wbI9OnTHUY9Jo906SkPlI2RZetfkY4NL5T2A6fLtPWxtv11p3xe0UV+0+Reubf3ZFmyLxYeBauQogx8mmHoB8SWDjMx24x0F198sXp5PBZ8gXhEefjENsKxjQmdmfeCCy6Qq666KimuhXWi+fBplqfrQFko09bmVGKwoqJCvXgeE0xbOpSn20wIyR8UgzQajUajFbYVjRj0ih4shII2JsO2UIoWM77Cts+W2aN6yXWNBklFbLEYpNmzZra89fAv5Aen/EJ+N3SU9OrVQX537rFy7LGac+WGDkNl7Mo1sr2ilzS6rpeMmh39Hsv/+ed7o/xF+re6TTog3SYd/rm0atVKlYFFWXQ/8B2vWNBpvHj3y2GHHWa0xQHPCR5yyCHq6h62dXm2fWDDmw6LwHjrAD/+8Y/VRDGV8KutMEJI7qEYpNFoNBqtsK1oxSAEDm4pTIZtoRRT9KQN+/te2bu7SjZv/kj2xhaLQZrP/hYN3/G+rH/vfflw526pqtouH25Yq251dNggm7fvlN1//Zv8fS/yV8nuvdHvsfzO6yY+lo8+2BrtYzTdpzr8czXJQhmYfOl+4LttgRaNd7/gFQ81bXEYMmSIWgAGr4TAdqqFdWx402ERGG8dAAvDYDJY28LPFkYIyT0UgzQajUajFbZlLQaRCYuQZCsGL7/8cvVaA0ziMwHP7XnFYGVlpXr3HN6tB2GCdFgcBbcpJgPxSOfNq8vUi6wgDO/Rw22KEB3xBWRi6YIAbdL9aNu2rWqb7eqgbb+gD9506A/EnNl/gG2E4zZQ1JEMv/sFi8DgNt4BAwbI8uXLVft0GTrMTG8TebgVGGFm/WijNx0hJPfg/D9ixAh58sknKQZpNBqNRitAC0QM4grRoEGDsuaFF15QV590eVikBC9Gx+QD29OmTZNhw4bF420gHum8eW0gHRYv0SCPLV0QoB9ok62/fvdLsn2AbYSbfU9Fuv2iy9Pp8Jkqrx4jb7h3PIAtHSEkt1AM0mg0Go1W2BbIbaKEEEIKH5z/eZsojUaj0WiFaxSDhBBCsoJikEaj0Wi0wjaKQUIIIVlBMUij0Wg0WmEbxSAhhJCsoBik0Wg0Gq2wjWKQEEJIVlAM0mg0Go1W2EYxSAghJCsoBmk0Go1GK2yjGCSEEJIVFIM0Go1GoxW2UQwSQgjJCopBGo1Go9EK2ygGCSGEZAXFII1Go9FohW0Ug4QQQrKCYpBGo9FotMK2rMVgdXW1TJ48mWKQEEJKFJz/R44cKQMGDKAYpNFoNBqtAC1rMYgf/AkTJmQtBjEZwASB5IdMB7iUwATVts9I7QNBYBsDL/BXW36SG7Q4yxSc/4cPHy79+vWjGKTRaDQarQAtsCuDmCBUVFSoCQTJPZic2caBfC4bNmyw7jNS+yxbtsw6Bl7gr7b8pPbBeRjnY9s4pINXBmk0Go1GK2wL7JlBTALefPNNWbJkiaxbt47kiFWrVsn06dPVINvGgXwua9askdmzZ1v3H6k9FixYIAsXLrSOgRf4K/wW/msri9QOOP/iPIzzsW0c0oHzP58ZpNFoNBqtcC1wMYjJA8oiuQGDO2PGDIrBFEAMzps3z7r/SO2Bq4KZiEHtt7aySO2A8y/FII1Go9FopWsUg0WOOam2jQOhGMwXFIPhg2KQRqPRaLTSNorBIsecVNvGgVAM5guKwfBBMUij0Wg0WmkbxWCRY06qbeNAKAbzBcVg+KAYpNFoNBqttK0oxOAbb7wht99+e7ys559/Xv74xz+qbYQj3pvHRKdr1KhRUlCeTo/vqMMsA2HePLZ6bemS4a0jG8xJtW0cSDjFoF/fNdF+b4sLAxSD4Rsj+BnFII1Go9FopWtFIQZHjRolJ510kqxcuVJtd+7cWa677jp5//335ZFHHpEuXbrIlClTVNymTZukd+/eakIGhg0bpvIhf5MmTaRdu3bq8+ijj5a77rpLbV9yySWqPF3fM888o+pAXh2GeKRDeuRDfrRLx6dKh/oQdsYZZ6hwgO+ow5s/U8xJtW0cSHBiED6p/VCj/VT7ZMuWLeNx8Fv4r7cczauvviodO3ZMmy4oCkEMon3meHhBvC2fRp9fdDp8muOhz006Pc4hesyDgGKQRqPRaLTStoIXg4sWLZK+ffvKzTffrJZKR5h3wtWpUyd59tln1XekQdrvfve7Ur9+fRWnJ95avCUTl7o8gPKQV28jXos3b3kmSNeiRQsZN26cDB06VI4//nh56KGHVNhFF12kwgG+Uwzmh6DEIHzoyiuvlEsvvVQOP/xwueCCC1QY2jNixAi58cYbVTxAnOmT8HvtKybwJfgUfMsWj7K97cgXhSAGp02b5hoPve+xjXCca1LtU31+QTqMEcrDOGI8kU6fSz788EP1ntbWrVvHz01BQDFIo9FoNFppW8GLQZtQ02FVVVWq/LVr1ypwpVCnsYm3IUOGqHT4/P73vy9z585V223btk2ow4utPJsYbN68uZxwwgkuDjvsMDnyyCMTwrt3756QP1PMSbVtHEjwt4l6/WX8+PFy9tlnq3fsYXvLli3qCpIZBl+D33h9JhnHHXecHHLIIVafzBeFcpuodzzwqYU4jl8cq9j3qfYp0unjF2OGscO46nOTGebNm08oBmk0Go1GK20rajG4evVq+elPfyr16tVT/OY3v4mnsYk3XC1EOnweeuihUrduXbX9ne98J6EOL7bybJNECI+lS5e6aNiwodxzzz0J4Rs2bEjInynmpNo2DiR8YhCT6eXLl6sJNbbLysrU1SYzDL4Gv/H6TDLgA9/73vesPpkvikEMwldwrGLfp9qnSKePX4wZxg7jqs9NZpg3bz6hGKTRaDQarbStoMUgnuE566yz1OQK5ehFYBB24oknqn/ncZXvxRdfVEydOjWe1ybe8Kwe0uET//pjgoPtm266KaEOgPp1WK9eveKCYuvWrTJmzBj1TKA3nc5rgraizbY45NVtzgZzUm0bBxKsGMQCMdpP33333XiY6QPan/U24tFe05/ToX1S1xEEhSYGf/azn6n9jU8tBhGvBZ1XNGJccIyb57R0YwlqY6GobEFbKQZpNBqNRitdy1oMYmJXXl4eiBjEYgwQX3hmTy/ugltAu3XrJu3bt48vxoJt89ZQM+8Pf/hDufzyy+WFF15ImNSZVwKwrSd/3jrMsPnz57vqAVhoBmnxaeb1graiPFsc8nrLzQRzUm0bBxKsGISvHXPMMfKHP/xBunbtqhYTQRgWFmrTpo3LN7CtFyZCOqTPlMrKSms78kGhiUH8CYT9jk8/YhDngA4dOsjDDz8c38/mWJrHtaa2ForKltoQg08//bT07Nmz1sTgRzt3y+ixk+UfX/4zFkKj0Wg0Gi1XVpBXBpEHV1OwOIOemJnxtjCNzotbQfVETE/qHnzwQbUgBD5xZRBXa7CNxV2S1YGFICZNmuRaUMIEk18zH0CYmQaLxehFZTQQKN582WBOqm3jQIITg/AD+BoWJ7nsssuUT8KvICC0/5m+gW2EIx6Ljlx11VUJ6MVOUJ4tHseMrS35oNDEoHk+8CMGgXluwrY5lubxramthaKyBe0N25XBr7/+Wr766iv55ptvYiE0Go1Go9FyZUX9zKAZ5gXxehKmF3PQi218+9vfVgtDYFVGHYYJuZlf16HzYgLuXQQGYbaJHsIQZ6bVoM7aXOjDnFTbxoEEJwYfffRR5WtaaGifxNhr/zP9yuYbWCQJK1jiTwlsI84ULmGi0MQgxgb73RwjxOtj3yYGvZhjaR7nmmTniHwRRjFIo9FoNBotf0YxGP2OicuKFSvUZBUMGjRILQyByagO816p03XovFdccYVaWEKnBwizTfQQhjgzrQZ11uZCH+ak2jYOJDgxuHHjRuVrNjGo/c/0K5tv6EWSJkyYoLYRRzF4cGiRh7FBm80xQrw+9v2KQe+5xCTZOSJfhEEM4o+MvXv3qnSEEEIIyS979uwpPjGIiT1e9IzVQ3X5WKQBz0zpNKYYRBqkveGGGxRYMOKII46Qq6++Oh5m5gXeerGYB8KQTpeHNthEhq3NGj8TzEygGExPUGIQmOJN+yTCtP/hFSdYdAQ+iG2Em77h9Rczr/ZdYB4LQQHxU0hi0LZP9eI9OLb1wj/6dR8mOA/gnJNsPDQYX30eCgL4RJBiEGG2dhFCCCEkf+A3W/82+yXUYhBgMYeOHTtKly5d1GIO3nT4rheQweIueCcYFn8AWDACiz7cfffd8TDvi6FRHhahefzxx9WiNAibOHGiWtQGdaJu26IywNsWtAH7Et8pBvNP0GIQC8jgXZbwJ/gGwrT/nXnmmWoBGfggtvUCMjq/Tbh4fRfAv72LKeWbQhCDOFdgLDAmuDUci8HgU+9TfUxjP2sRb+bHuQDnBJwHcD5INh4ajC/G3CwjnwQtBgkhhBBSmIReDAKUjX/v+/btqz6RDkvsY5LWoEGDpCv5JZvomSAfFvxAuboPmOiirsaNG8vw4cMTbi3VeNuM77odFIP5J2gxiCtH+GPCXEBG+18q30C74WfwN/gd/M+P7wZFIYjB6dOnq6t4Jj/5yU9c+zTZcW6OB8pBWLrxMMc3CCgGCSGEEJINBSEGNfhn/6ijjlLpcEvXOeecoybeWMADz6tgEmeCq4C4fWvOnDnxMO8L4JEX5eoFPJAGbUGYrmPYsGHxvGa6+++/X6688sp42fiOMHxHnagbbdB5zXozhWIwPdjPQYnB8ePHK1+Bz8B34EPwGzNM+6n2DQiMzZs3J6RDXpvvmuiFZoKgUG4T9WIKOhyPtuMc42GOpS2vWaY+H+DYR3lmXD6hGCSEEEJINhSUGFy7dq3ce++9Kh0mKZiYYWKKBTyw8MbJJ5/sAqv8HXrooWoSp8NuvfVWV5nIi3KxgMeFF16o0qAtCNN1NGvWLJ7XTIfVCevUqRMvG98Rhu+oE3WjDTqvWW+mUAymByIpKDGIiTN8BT4D34EPwW/MMO2n2jcgMPBeN2865LX5roleaCYIikEM4ni0HecYD3MsbXnNMvX5AMc+yjPj8gnFICGEEEKyITRiEM/w+Hl3WrJ0+Bcfk5l0JKsDt53ifWFI431GEHl0XjNdJvjpWyooBtMTpBj04sdP8d2WDmGm79gwr1rlm0IVg9hnOHZxDGOf245zb5jGzGuGpzpv5BOKQUIIIYRkQ2jEIEkNxWB6wiQGi5lCFYPFDMUgIYQQQrIhUl1dLZMnT6YYDDkUg+mhGMwPFIPhozbE4MiRI2XAgAEUg4QQQkgJEcEPPp4/OlgxiIk4JnwkN2BhC4rB1MAHKyoqEvYdqV2WLFmSsRiE/3rLIbUHfP9gxSBWUO3Xrx/FICGEEFJC1NqVQSzBjhc5k9yACfXrr7+uJn62cSCOGJw6dap1/5HaA8/WZSIG4bfwX1tZpHbA+ZdXBgkhhBCSKQf9zCAmBNu3b1dL3ZPcgwmZbRzI5/Lxxx9b9xmpfXDesI2BF/irLT+pfXAexvnYNg7pwPmfzwwSQgghpcdBi0FCCCGFDcUgIYQQUppQDBJCSIlDMUgIIYSUJhSDhBBS4lAMEkIIIaUJxSAhhJQ4FIOEEEJIaRLZuXMnxSAhhJQwqcTg7t27KQYJIYSQIoVikBBCShwtBgcOHCizZs2S9evXpxSDWghSDBJCCCGFTQS3AFEMEkJI6WITg1u3bpWqqiqKQUIIIaSIieCHnmKQEEJKFy0GBw0aJG+99ZZs2LAhLgb37Nkje/futd4iSjFICCGEFDYR/NBTDBJCSOliisHZs2fLxo0b1Yvsq6urKQYJIYSQIkatJjpx4kSKQUIIKVFw/h85ciTFICGEEFJiUAwSQkiJo68MDh48WObMmSPvv/++bNu2TfD78PHHH8u+ffsoBgkhhJAiJIJ/fHmbKCGElC5aDD711FMyd+5c2bRpk2zfvl2w2jTFICGEEFK8RPAjDzH45ZdfqgkBIYSQ0gLn//POO0/OuuEPUlFRIZs3b46LwVTvGKQYJIQQQgqbCH7gIQb9UF5ebg23MXnyZJkwYYL6tMXbwO2qwBZnA2V369ZNGjZsaI3PBaPLbpHzz+8gT7vCn5YO558v57d/2gjTac+XDk+baUdLz1ujaT1l2NNGKe8pt5hp1XZiXbpcV/6nO8j5t/aUp1E20sfLQntvkZ7lr8nT7c+XW8pGO/WbZSJvLE08zEDns8XlmkcffTSjMc/GrzL1XZDN8eEKT7bPVbjX50BszNt3MMbC4gd6vMscfxgdD4/5HcZd1QG/TIPKX+M/NXWkwOvDURr2fU26lD3slOn15ZiPx/uQsF9ix1A8n7Od0h9j/YuX6akj8bh2jun0ZdrGJUbafiQHxxfaa6tfnysS9ptJrG6M16ior02aNEmB4wB+B1555RUZ0DaapuUj8tzo0erKYPc7fyTz5s1T7xjESqJ49ZAWg6YQ1GLQ9qNCCCGEkMJBiUHcKop/gLFgAG4Pwjum1q5dK6tWrZKVK1cqVqxYITNmzFCffli+fLksWrRIfdribSxevFhhi7OBsrt37y4nn3yyNT4XzHriGolE2kq5K3yW9Lk2IpH7ymvC3ugj10Qics0Ts4x0Gm96S/4k2Ov3Ui5tr+0js2LbKg/KVm1C3mh85Brp88YKKb/PaWM8jVHOrDeibY/1I5IWpzwzf67o2bNnRmOejV9l6rsgm+MjHpbSX5xxSvQPx2/ajsJnbP+rcq6Ra/Q20o1qKxH4g/50leGlxjfs8cBPGoO43+mwWXJ8j2kS+dnD0XYm9kv5oqedrv4nlBclZd/sx1dNmU68d9/b2pFJvG3M7ONogn0bTaPG0NumWD9iccnLifUn6gORX/WWN5ctk6VLlyqWLFmijoV33nkn6n/D5d7IldJjSqUsWLBA5s+fL0OfbKe+68Vj8OohvXiMVwhSDBJCCCGFTwQ/7PjXF8+F4McfiwZs2bJFLSCAd01BGIL33ntPLSywbt06X0BMYmKCT1u8jXfffVdhi7OBssvKyuSUU06xxueCt/tfG52MtZexZvic/nJtdALXflyadAbu+Lel/6+jk7sHxiak85KuXMWcaHkPRMv7dX95O7qt8qBs1U7kHSvtI9dK/znrZGw03bX9365J4y0rCTqfLS7X9OnTJ6Mxz8avMvVdgFUYbeE2dB3ONsYj3fg7adz73PEb5Xfj2qvxHmuOdWz842MVS6PDtJA3/dapx/GNmjAv7jRmWS50f+J+F8sfbcfF/QbIE28tdPJ6+q18MdZOHWZL5wJ9S3pcOPvO3c/02NphkrpNztgkHCPGGLjCY9Qch5b83vFLUreOc9r/pMxds0ZWr14dpUL6XhcViX1nx//gWxYTihCJ+HNi2J86KqFoe16QYpAQQggpPiJ4XgQ/7vixxxLimADg9iCIQvw7jBcPA9w2VFlZqT79AEEJAYlPW7wNLGcObHE2UPYTTzwh9erVs8bngsVPXZ846VV0lklGukkdo2GNBstiI8zFwsFyfTRf58nOdk257nISiOVDWp03GWjD9U8tdsruOCmWF+VPks6R62XwQkuayZ1j7XDCbeUCpE8Vn0v69++vxtwvEI7AFpeMTNODunXrWsOTgTrmzXsuOhZpfCUOxi2aFuOkthfL4EbaD5zvkdi4Il6NaaPoOGmfwti66jHza2J12IjXW+M/2NY+VFNGrG6dPu53NfE9xtwv0ysnOcdJvNwYnmMjYTsBp81J/VHlR3vdfUvtv7H96W2bN94oz9z3uk0JbVbHV5pjXOGUn6yN1v0GjPLfGRwdgxsGyaJNm9SfewDnV/0nH4Qj/pSAUMSfJcuXz5IHm56txCFWEcVVQfMWUS0EKQYJIYSQ4iHyz3/+Uy0goAUh/gXGv8GYCOB5EYhDgMkBbm3Dpx9wlRGTE3za4m1AgOrlzP2AsgcMGCCnnnqqNT4XrHquUXSy1VWmWsMbydAV2F4lQ5tEJ2tdprrSuFgxVBpFJ4tdp9WEOWWYk0uQWJfO601rlmWiykVbkK/JUFn10VTpGmvr1C4RafTcqpo0Rh6Ef6TSeuvqKkM96fMJlr9HO/Dph4EDBypsccmAX9nCU4HbV23hyUAd2P8RNSZmHx3/cfa/GV4T5+x757sed8d/TH9xxi5ezrSunrrc+WvyaD+uwe0f7jTah5KmV/7q9uPer7aT2cunOv23+ZHKo/0tsT0OsX0R88mE40QTL8tIEwuz72OnTynL1MeF2Xbs33hbnfiEY1KlSVWuJpUPxNqXsN/cdb47NDoGjYfIiqoq2bFjh0L/yYdzM/5Mw2MBEIjj26G/ETnnnGbqqqEWgvg9sD0rSDFICCGEFAeRf/3rXwJB+I9//EMF4MceP/4QhvhHGGBCANasWRP/ng48ZwKxhk9bvA2IT2CLs4GysRT6aaedZo3PBRuGN4lOmrrJzIS4DTK8WXRC9chMtT3zkej3ZsNlQ0K6GGuHS5Po5KvbLEucZlY3NUGLRJrI8LWW+DgzpZtKF5EmwzfEw9FWbKs2o10oT7UJ6Z0y0U5XGk9eve3UYbQDZRnp88mQIUMyGvNs/CpT3wXZHB+2OGfcbT7mxfE5x4fwPTpm0e34uMV8LO6H8fG35ddgnBPrdvuH2xe0DyVNr9rhLrPfnzvK/DUznePE40cqryt9zL9T+ZvaZ0mOE1V/YlxiPQ6qTcnKSol5DnDanHB8Zzi23v2qse03b9h69K/pMFn38cfqrg/zDz6IRX0HCO78wOqhuGI45rk/Kj/WQhC/A8nEoPfHhBBCCCGFR+Tf//63HDhwQPbv3+8ShRrzX2BMFvSEIB2YPOAKozmJSAcmyMAWZwNlP/vss3L66adb43PBlpeaRidzj8mchLgtMvLm6GSs+5w06RzSxcfZOFKaRieVj821xLlw16+3m760xakrGq4/P/tsjjwWaSojN34mc7q70+jysI3wmvJr8qhttOvmkbIlHp8/nn/++YzGPBu/ytR3QTbHR2Ic9rM53hhHY7+7cMZYpZ37mEQwHspf4Fc6zpLGlj9a70iMd5JxdfuD2xfgQ86fFh60P8XbVFPeFa+9K6+8t83Ja/hdYv9joO0pjxenL26fjaHqt+xDS5lOX5Lt7/TU9CdJexLGIBkp+hMl2X6zjkPkJhmx3vlzD8cBhJ4Wh+ZjARCE48ePV7f3pxOCwPydIIQQQkhhEvnPf/4jX331lQKiUAtDDQSiBrcVmdupwHurMJnApy3ehp5w2OJsoOznnntO6tevb43PBdtfbhadXJXJvIS4eVIWnXg1e3m7s/3BaGlmbrvYLqNbRCdpPebFtqN54989xMopm+9sz+thqxtYyow0k9EfeOI9bZ/Xw2mj6pfRBmyrtkfrH63q9pZnbjtl6zbmmhEjRmQ05tn4Vaa+C7I5PrzhGA9zHBTzy6LjZu57jd7vzqf2NVUGRIAuB/lbjJbt+tObP+pTSI/xs9YfRfuJs+32BXecBeXDbr+rPyU6jhtt9aFsiy+pfRArw/wex70P3Nj9U/m8sT+c/Zbs+PKg+uQdE8s4ePalLcxOqv74K2fb6Gj/mo+SrV98oU72EHAQdhB4ShiuHSaNI43luXd3K0GIK4Svvvqq+lNDi0AKQUIIIaS4UWJQC0JcJdRoYWiCZ01s4TYgJDFpwKct3gauSuL5RVucDZQ9bNgwJQzMtueS6rHNoxPGXlLpCa8sw0TSHe6kjUjzsdVG2moZ08qbtlJ6YfKeUG4svNUYqY6FOfVEpNdCM50Oby5jtsXCFvZKzIdthFvar9paVunabt7Kab9Tl26jA/qEMp2+Ic6oO8eMHDlSjbnNJ2xk41eZ+i7I5vhw9c0zZunjHF/qNXaMNE/wJ3M7lq7MW4b2xdjYbUM59nGsGWtsZzjeqly3z9V/PTqOW2J+afgdSDzGYr4XT+fdTn5cxvH6vWpTTZ/S5k8gtu9StSFWR/xYVW3wu9+c8t3njhps+81L1Zhoe1q+LNujvgZxiD8gcBzgxA9x9+mnm5zbWpu+IKt27lQriE4c1E4tNGOKQK8QBN4fEkIIIYQUJhFMEAAmzCaYNHjBP8e28CAZPny4EgZa1OaaXeMx4YtOoLy0Gie7LOn/UzVOTQhdaXstSkz3n10yTk3M3TQfvyshrbUNnvpVGlWPLre3LNLx7/R2b7vSO9uLejnl9h5vtN/b7ng5i6S3p7xcgpe74zZRmz8ESTbHB/6EUf1SfmLsQ5vfJIyB4TNWn/KA8TLTuerEGNr9TdfT+x29jbTNZVyVmSYFqNfjn/WnRcdxa8zPLG33+nhiu5z21qRx+5+1XOWvNXlqyvSWZaLLdfaBux3eY9ZyDHjqrNmHwFamn7jk+81k57joPmw5VqoPHBA8G75/f5VztXHUh+rkD5H3t79tkmEQhLH2nX9+K7WoDIUgIYQQUhpE/ve//wn473//a8WcXOBWInM7HRCV+IfaFmcDV0vwD7YtLhm4ZfCMM86wtr2UeSc6WeyzODqhvAWTxncS4neNb6HCkU5PBPss1vHI10LGVbvz2FDlIL+ljlwxatQoNeY2f7CRjV9l6rsgm+ND9Wlxn/gYxLklKp48/U4cF2d8a8bNgqfsFlFxYUuHcXTFVY+TFkY+d3vekT6R1P4R94sY3nqfnfOIrK7Kn8+UIvAxfccHrkbrxcL0FUIIO9wOiucD8fwg/Hfy5MlxMegVgcD2I0IIIYSQwiXyzTffyNdff50WCEZMFrR4TAcmI5h04NMWbwOTFWCLs4GytRi0xZPiRItBW5yNbPwqU98F2RwftrhS4Nm53WRN1WJrHKkd4GOmIARaEOKPCPwA4HZQPD+IBWW0GMRCMhSBhBBCSGmgxKAfIAixFL5XJCYDkxFMOvBpi7ehn6eyxdlA2S+++KISBrZ4UpyMHj06ozHPxq8y9V2QzfFhiysFhlRExWD1YmscqR3gY6YgBDgOcKVcXx10bhX9m1rZFv7rFYO2Hw1CCCGEFA8RiZlNAHrBu6ls4TYwGcGkA5+2eBv632tbnA2UrcWgLZ4UJ1oM2uJsZONXmfouyOb4sMWVAg/OGS0LqrdY40jtAB/zCsJUYhD++9prr6lVcW0/FoQQQggpPuJi0I/hnVR+DZMR3JKET7+m/732aygbK0tCGNBKx15++eWMxjwbv8rUd2G5Pj4woQd+DWVj8p9pPyAM/Fo2daAP9Wd8Iy/viAWksTD3I8zjAbyC0HurKK7+4b2D+kX0FIOEEEJIaUExSCs4K1UxWEz9yFQMcjz8mVkH8CMG9VVBikFiA/63evVqkgfee+899RyvbRxKBfQf+8G2f0jtg+PbNg6ktKAYpBWcUQz6szD3g2LQv2XbD0AxSA4WvHdy2rRpMn/+fJJDZs+eLTNnzlS3bdvGoVRA/7EfsD9s+4nUHjiucXzbxoGUFhSDtIIzikF/FuZ+3DV7hkyr/jQWktrC3I8wjwegGCQHCyaLb731VtxHSG5Yt24dxWAULQaxP2z7idQeOK4pBgmgGKQVnFEM+rMw92PI291k3c6lsZDUFuZ+hHk8AMUgOVgoBvMDxaADxWD+oBgkGopBWsEZxaA/C3M/KAb9G8UgCRKKwfxAMehAMZg/KAaJhmKQVnBGMejPwtwPikH/RjFIgoRiMD9QDDpQDOYPikGioRikFZxRDPqzMPfj6plb+MygT6MYJEESlBhcunSpTJgwQaqqqqzx8NVFixZZ40yQbuHCha6wKVOmJIQFDcWgQ9BicMaMGTJnzhz1fceOHfLKK6+o91nb0OlS8cYbb6jFcGxxQUMxSDQRTDT8smnTJmt4MnAg2cKTgZM+sMUlY9CgQVK/fv3YVIhWCgYxeNppp1n9wUY2fpWp74IwHh9h7cepU/8rT636uzXeBsfDHmdD14Ef++rq6ng7Eb5t2zbZunWrEnwod+PGjbJmzRpZuXKlLFu2TMrLyykGiYugxODw4cPlsssuU6Ltww8/TIi/+OKL5fHHH08I93LJJZdIWVmZK+ymm26SRx99VNauXesKDxKKQYegxWCbNm2kbdu2smrVKnWO/MEPfiAnnHCC1KtXz8VRRx0l99xzjysv2rx+/XpXWKtWreTuu+92hSEdXp9hhgUBxSDR8MogreCMVwb9WZj7wVdL+Lds+wF4ZZAcLEGJQfxp8frrr0vdunVl+vTpCfEHIwY3bNgg9913n9x5552u8CChGHQIWgzC3/FHwfXXXx8Xg/369VN/mpk0btw4QQy2bt1aOnTo4AqzicHf//730q5dO1dYEFAMEg3FIK3gjGLQn4W5HxSD/o1ikARJUGIQYDI+fvx4dbUFE/KrrroqzrHHHitnnXWWKwxgTmCWocXgxIkTXelOPfVUOfHEE11hI0aMcOXNJxSDDkGLQbB48WL1B4QWg+eee67LT8BJJ52UIAZbtmyZIPxsYhBhuAJphgUBxSDRUAzSCs4oBv1ZmPvBBWT8G8UgCZIgxaAJRGHXrl3VJPpb3/qW/Pa3v1XbXvDMF9rbvn17xSmnnCJXXHGFdOrUSU3eDzvsMLn99tvj6c0wvITbVnc+oBh0CIMY1Ggx2KRJE5ePgfPOO49ikBQNFIO0gjOKQX8W5n5QDPo3ikESJGERgwCLygwePFjdojdv3jy1gMebb76ZkG7y5Mlyww03KI4//ng555xz1NXBFStWSLNmzdRVRjyLuHz5cnnqqafUZL+ioiKhnHxCMegQlBjcvn27WiwGc0rw5z//OS4GIfp0uOaXv/ylVQxee+21rnSXXnppQhiehaUYJGGCYpBWcEYx6M/C3A+KQf9GMUiCJCgxuHnzZrWoEdALyEC4nXnmmVJZWanCb7vtNrnxxhsT0pno20TN8i666CLp2LGj9OrVS04//XQlLBGOvnrz5wuKQYegxCD8A8INV5JxCzK+azGIPxQQdvjhh6t4DZ47Xb16dbwMXAE04wEWmjn66KMTwjt37uyqPwgoBomGYpBWcEYx6M/C3I/Oc16Wyo8+iIWktjD3I8zjASgGycESlBh8/vnn1SqOQC8gAzF46KGHxsPr1KkjRxxxRHzbdpunFoNYnVSnw22hmKQfc8wxrvL69u2bkD9fUAw6BCUGsfIyVvjE4jAPPfSQSwziSnKXLl3k5z//uWsRmR49esh1110XLwPHihkPsHLtHXfckRCOss36g4BikGgoBmkFZxSD/izM/eACMv6NYpAESVBiELd0YhKO5wP/8pe/xMPGjh0bBys+NmzYML7tXdYfQAxioRnc0mfmbdSokbpdzwzDwiHe/PmCYtAhKDFoApFnisEhQ4Yo3/jTn/6kbj3G7cVYcRQrgqZ7ztT2zGBYoBgkmoIXg3iZJ8VgaRnFoD8Lcz8oBv0bxSAJkqDEIJg7d666NU+LQS+YZGOy7Q1He7HEP8Ateddcc408+OCD8TCAW0XPPvtsV1iyevIBxaBDWMUgfAOLED388MPqFmP4E54xRHq8vxW3HNuOk2RicOrUqTJgwICE8HxCMUg0BS8GcZ93JBJRL1WmlYbddddd6j09fi3sk3a/Vkz9oBj0bxSDJEjCIgbxx69egEODhTkwaTfDFi1alLCADG4ThW/rMNwSCiGI71hpFLeK4r2F5eXl1nbkA4pBhzCKQVxVxgqi+MMA77/E/ANpsIAR0uOciavPzzzzTEJZycQgxOMvfvGLhPB8QjFINAUvBlEHxOCCBQtiobRiN5yIKQbTW5j7cdfsGTKt+tNYSGoLcz/CPB6AYpAcLGERg7gqc/LJJ7vAwhxHHnmkK2zgwIGuMsyXzmPFSNxqiquCPXv2VGGYO6AcCEgzX76hGHQIoxg87rjj1HOEZpoWLVrEVxOlGCSFTkRPGvyASYkt3AYmIJh04NMWbwMTK0xWbHE2dB14ASiuFtFKwyD+R48ebfUJG9n6VSa+C8J6fISxH1hNdO3OJdZ4L2HuR5jHwysE0d4DBw6o+C+//FK++OIL+eyzz5QYxOIJABNiikFiEhYxiIm5dxEOvGsQr4Uwwz744ANXGaYYxOsk8LJ5LCBDMRhOwigGsbAQvptpKAZJMRHBxMAvO3bssIYHjX5ukLeKFr/hBFq/fn2rHwRNWI+PTMlHP56t6CYrt1da42qLUh+P/fv3qyuAEH64Cgjxh5M+BCAmXPv27ZNPPvlEdu3aperAJHrChAkUg8RFWMSgLT7ZM4MmphjEYyV4eT0Wi8HiH1dffbXcfPPN6vZQrCTpzZtPKAYdghaD3bt3l/bt26vFYn7961/L0KFDZeXKlQnpMO/EK0nwXYvBc889V/mUSd26ddUfEN7wH/3oRxSDJDTk7MogwIQkk3/BM/2nHeg6cHDx6mDxG64K4rmQfPmVLS4ZYT4+bHHJyEc/MrkyCDge9jgbug5eGSS1QVBicNasWerWUCzpj08s2uGlQYMG6oXyZhgW5kB+XCXErX316tVTYhCTdzMdFgBB2Uijw5KJznxAMegQlBjEOyoff/zx+MIwS5YsSel7GtyWjNuP9esn/PKrX/2KYpCEhqJ4ZhCfuNUDVwf57GDxGgQ/xjiffpWJhfn4yMTy0Y+rZ27hM4M+Ldt+AD4zSA6WoMTgxIkTpU2bNmqi/cADD6jXSPhh1KhRKj+W/8c73nQY/ugw0+nFYvAMYbNmzVTYSy+95GpDPqEYdAhKDOLOiNatW8uUKVPiYVgs5ne/+53Lb7zgKqJZjl+wKjr82haXLygGiaZoxCAMtxBSEBanaSGIsc23X/k1ikF/hj5wNVH/RjFIgiQoMVhqUAw6BCUGSxGKQaIpKjEI04IQn7TCNzwHagrBoPzKj1EM+jP0gWLQv1EMkiChGMwPFIMOFIP5g2KQaIpODMIgBPFsGQQELsXTCs8gAs1x1Fd7g/SrdEYx6M/QB4pB/0YxSIKEYjA/UAw6UAzmD4pBoilKMQjzigm9wAzEIQknGC+MEcYqmZgP2q9SGcWgP0MfsIDMup1LYyGpLcz9CPN4AIpBcrBgsjhjxgxZunQpySHz58+nGIyixSD2h20/kdoDxzXFIAFFKwa1QRRCUEBkaKFx2mmnKaHhF7zKwBaeDKTPJo8tPBXF1g8t2CEKkz33GRa/shnFoD9DHygG/RvFIAkSvHZk0aJFJA8sW7ZMPv30U+s4lAroP/aDbf+Q2gfHt20cSGlR9GLQZmHsB16XgHfRZGIcD3/GfoSvHxSD/i3bfgCKQUIIIYSkgmIwjeWrHyeddJK6NdJ7W2Qq43j4M/YjfP3oPOdlqfzog1hIagtzP8I8HoBikBBCCCGpoBhMY/noBwQghCCoW7duLDS9cTz8GfsRvn5wARn/lm0/AMUgIYQQQlJBMZjG8tEPCEAtBuvUqeP76iDHw5+xH+HrB8Wgf8u2H4BikBBCCCGpiOgJjR+wGIst3IaedNjikoH0meTJpg4Qpn6Ul5fHhaAGt4za0nrhePiD/bDHJyMf/YAYLP/wv9Z4LxyP7PqB7wcOHFDb+/fvVwLwyy+/lC+++EI+++wztVDDvn37ZNeuXWoRgW3btsnEiRMpBgkhhJASImdiEGQ68UH6bPLYwlMRpn7oZwVNcHUQItGW3oTj4Q/2wx6XjHz04663psuft+21xtsIaz+yyWMLT0W2/chEDKIOikFCCCGk9OBtomksl/0wnxX04ufZQY6HP2M/wtcPribq37LtB0h2myjEoXmbKOoAvE2UEEIIKS0oBtNYLvthPiuowVVB/Znu2UGOhz9jP8LXD4pB/5ZtPzQQhMnEIH4EPvnkE3V1EPVQDBJCCCGlBcVgGstVP8yrgnjh+p133qm+44XrOjzd1UGOhz9jP8LXD4pB/5ZtPzTJxCBuGcWPgBaDgGKQEEIIKS0oBtNYrvoBAQgWLFigysZL57ENw/M7WhSmujrI8fBn7Ef4+nH1zC0yrfrTWEhqC3M/wjweGn2rKMQg2qufI9TPD+7du1d2796toBgkhBBCSguKwTSWi35AAAJtKNsUg9ogCikG3cZ+FEc/+GoJ/5ZtPzTJxCAWlIEYxCIye/bsUVAMEkIIIaXE5/L/Ab6TWtKfiL4IAAAAAElFTkSuQmCC;" vertex="1" parent="1">
          <mxGeometry x="100" y="810" width="899" height="290" as="geometry" />
        </mxCell>
      </root>
    </mxGraphModel>
  </diagram>
</mxfile>
